<svg width="50" height="50" viewBox="0 0 50 50" fill="none" xmlns="http://www.w3.org/2000/svg">
<path d="M28.1257 26.041C28.1257 25.4885 27.9062 24.9586 27.5155 24.5679C27.1248 24.1772 26.5949 23.9577 26.0423 23.9577H15.6257C15.0731 23.9577 14.5432 24.1772 14.1525 24.5679C13.7618 24.9586 13.5423 25.4885 13.5423 26.041C13.5423 26.5935 13.7618 27.1235 14.1525 27.5142C14.5432 27.9049 15.0731 28.1243 15.6257 28.1243H26.0423C26.5949 28.1243 27.1248 27.9049 27.5155 27.5142C27.9062 27.1235 28.1257 26.5935 28.1257 26.041ZM38.5423 36.4577C37.6574 36.4606 36.7964 36.7452 36.084 37.2702L32.4381 35.6035L36.4173 33.7702C37.0462 34.152 37.765 34.3604 38.5006 34.3743C39.3247 34.3743 40.1303 34.13 40.8155 33.6721C41.5007 33.2143 42.0348 32.5636 42.3501 31.8022C42.6655 31.0408 42.748 30.2031 42.5873 29.3948C42.4265 28.5865 42.0296 27.8441 41.4469 27.2614C40.8642 26.6787 40.1218 26.2818 39.3135 26.1211C38.5053 25.9603 37.6675 26.0428 36.9061 26.3582C36.1448 26.6735 35.494 27.2076 35.0362 27.8928C34.5784 28.578 34.334 29.3836 34.334 30.2077L30.3965 32.0202C29.857 31.6374 29.2341 31.3886 28.5794 31.2943C27.9246 31.2 27.2569 31.2629 26.6313 31.4779C26.0057 31.6929 25.4403 32.0537 24.9818 32.5305C24.5233 33.0074 24.185 33.5865 23.9947 34.2201C23.8045 34.8536 23.7678 35.5234 23.8878 36.1739C24.0077 36.8244 24.2808 37.437 24.6845 37.9611C25.0882 38.4851 25.6108 38.9055 26.2092 39.1875C26.8076 39.4695 27.4645 39.6049 28.1257 39.5827C28.7968 39.583 29.4568 39.4108 30.0423 39.0827L34.4173 41.166C34.5096 41.9632 34.8301 42.7167 35.3404 43.3361C35.8506 43.9554 36.5289 44.4143 37.2936 44.6575C38.0583 44.9007 38.877 44.9179 39.6513 44.707C40.4255 44.4961 41.1224 44.0661 41.6582 43.4687C42.194 42.8713 42.5459 42.1319 42.6716 41.3393C42.7973 40.5468 42.6914 39.7348 42.3667 39.0009C42.042 38.2671 41.5124 37.6426 40.8413 37.2025C40.1703 36.7624 39.3864 36.5255 38.584 36.5202L38.5423 36.4577ZM21.8757 40.6243H11.459C10.9064 40.6243 10.3765 40.4049 9.98585 40.0142C9.59514 39.6235 9.37565 39.0936 9.37565 38.541V9.37435C9.37565 8.82181 9.59514 8.29191 9.98585 7.90121C10.3765 7.51051 10.9064 7.29102 11.459 7.29102H21.8757V13.541C21.8757 15.1986 22.5341 16.7883 23.7062 17.9604C24.8783 19.1325 26.468 19.791 28.1257 19.791H34.3757C34.3757 20.3435 34.5951 20.8735 34.9858 21.2642C35.3765 21.6549 35.9064 21.8743 36.459 21.8743C37.0115 21.8743 37.5414 21.6549 37.9321 21.2642C38.3228 20.8735 38.5423 20.3435 38.5423 19.791V17.7077C38.5423 17.7077 38.5423 17.7077 38.5423 17.5827C38.5206 17.3913 38.4787 17.2027 38.4173 17.0202V16.8327C38.3172 16.6185 38.1835 16.4216 38.0215 16.2493L25.5215 3.74935C25.3493 3.5873 25.1524 3.45368 24.9382 3.35352C24.8692 3.34145 24.7987 3.34145 24.7298 3.35352C24.555 3.29002 24.3731 3.24805 24.1882 3.22852H11.459C9.80138 3.22852 8.21167 3.887 7.03957 5.0591C5.86746 6.2312 5.20898 7.82091 5.20898 9.47852V38.6452C5.20898 40.3028 5.86746 41.8925 7.03957 43.0646C8.21167 44.2367 9.80138 44.8952 11.459 44.8952H21.8757C22.4282 44.8952 22.9581 44.6757 23.3488 44.285C23.7395 43.8943 23.959 43.3644 23.959 42.8118C23.959 42.2593 23.7395 41.7294 23.3488 41.3387C22.9581 40.948 22.4282 40.7285 21.8757 40.7285V40.6243ZM26.0423 10.2285L31.4382 15.6243H28.1257C27.5731 15.6243 27.0432 15.4049 26.6525 15.0142C26.2618 14.6235 26.0423 14.0935 26.0423 13.541V10.2285ZM15.6257 32.291C15.0731 32.291 14.5432 32.5105 14.1525 32.9012C13.7618 33.2919 13.5423 33.8218 13.5423 34.3743C13.5423 34.9269 13.7618 35.4568 14.1525 35.8475C14.5432 36.2382 15.0731 36.4577 15.6257 36.4577H17.709C18.2615 36.4577 18.7914 36.2382 19.1821 35.8475C19.5728 35.4568 19.7923 34.9269 19.7923 34.3743C19.7923 33.8218 19.5728 33.2919 19.1821 32.9012C18.7914 32.5105 18.2615 32.291 17.709 32.291H15.6257ZM15.6257 19.791H17.709C18.2615 19.791 18.7914 19.5715 19.1821 19.1808C19.5728 18.7901 19.7923 18.2602 19.7923 17.7077C19.7923 17.1551 19.5728 16.6252 19.1821 16.2345C18.7914 15.8438 18.2615 15.6243 17.709 15.6243H15.6257C15.0731 15.6243 14.5432 15.8438 14.1525 16.2345C13.7618 16.6252 13.5423 17.1551 13.5423 17.7077C13.5423 18.2602 13.7618 18.7901 14.1525 19.1808C14.5432 19.5715 15.0731 19.791 15.6257 19.791Z" fill="#0AC9A5"/>
</svg>
