<svg width="50" height="50" viewBox="0 0 50 50" fill="none" xmlns="http://www.w3.org/2000/svg">
<path d="M40.8965 7.604C40.6545 7.40821 40.3716 7.26915 40.0688 7.19704C39.7659 7.12494 39.4508 7.12162 39.1465 7.18733C36.9203 7.65388 34.6222 7.65982 32.3937 7.20479C30.1651 6.74977 28.0533 5.8434 26.1882 4.5415C25.8394 4.29956 25.4251 4.16992 25.0007 4.16992C24.5762 4.16992 24.1619 4.29956 23.8132 4.5415C21.9481 5.8434 19.8362 6.74977 17.6077 7.20479C15.3791 7.65982 13.081 7.65388 10.8548 7.18733C10.5505 7.12162 10.2354 7.12494 9.93254 7.19704C9.6297 7.26915 9.34686 7.40821 9.10483 7.604C8.86312 7.80008 8.66842 8.04782 8.53502 8.32903C8.40163 8.61023 8.33294 8.91776 8.334 9.22899V24.7498C8.33214 27.7368 9.04394 30.681 10.4101 33.3372C11.7763 35.9935 13.7573 38.2849 16.1882 40.0207L23.7923 45.4373C24.1452 45.6885 24.5675 45.8235 25.0007 45.8235C25.4338 45.8235 25.8562 45.6885 26.209 45.4373L33.8132 40.0207C36.244 38.2849 38.225 35.9935 39.5912 33.3372C40.9574 30.681 41.6692 27.7368 41.6673 24.7498V9.22899C41.6684 8.91776 41.5997 8.61023 41.4663 8.32903C41.3329 8.04782 41.1382 7.80008 40.8965 7.604ZM37.5007 24.7498C37.5023 27.0722 36.9492 29.3614 35.8874 31.427C34.8257 33.4925 33.286 35.2745 31.3965 36.6248L25.0007 41.1873L18.6048 36.6248C16.7153 35.2745 15.1756 33.4925 14.1139 31.427C13.0522 29.3614 12.4991 27.0722 12.5007 24.7498V11.6248C16.8682 11.9986 21.2424 10.9853 25.0007 8.729C28.7589 10.9853 33.1331 11.9986 37.5007 11.6248V24.7498ZM28.209 19.979L22.6048 25.604L20.7507 23.729C20.3584 23.3367 19.8263 23.1163 19.2715 23.1163C18.7167 23.1163 18.1846 23.3367 17.7923 23.729C17.4 24.1213 17.1796 24.6534 17.1796 25.2082C17.1796 25.763 17.4 26.295 17.7923 26.6873L21.1257 30.0207C21.3193 30.2159 21.5498 30.3709 21.8036 30.4767C22.0575 30.5825 22.3298 30.6369 22.6048 30.6369C22.8799 30.6369 23.1522 30.5825 23.406 30.4767C23.6599 30.3709 23.8903 30.2159 24.084 30.0207L31.2507 22.9165C31.643 22.5242 31.8634 21.9921 31.8634 21.4373C31.8634 20.8825 31.643 20.3505 31.2507 19.9582C30.8584 19.5659 30.3263 19.3455 29.7715 19.3455C29.2167 19.3455 28.6846 19.5659 28.2923 19.9582L28.209 19.979Z" fill="url(#paint0_linear_4772_3325)"/>
<defs>
<linearGradient id="paint0_linear_4772_3325" x1="41.6673" y1="4.16992" x2="8.33398" y2="4.16992" gradientUnits="userSpaceOnUse">
<stop stop-color="#01E9BD"/>
<stop offset="1" stop-color="#007CDE"/>
</linearGradient>
</defs>
</svg>
