<svg width="88" height="88" viewBox="0 0 88 88" fill="none" xmlns="http://www.w3.org/2000/svg">
<circle cx="44" cy="44" r="44" fill="#E4FDF9"/>
<g clip-path="url(#clip0_4772_3521)">
<g opacity="0.7">
<path d="M27.997 40.3661C28.9016 39.44 29.667 38.229 30.154 36.733C30.989 36.2344 31.4761 34.311 31.4761 33.1C31.4761 32.2451 31.2674 31.8889 30.8499 31.7465C30.9195 30.0368 31.1978 28.1846 30.5715 26.9024C29.3886 24.4803 26.1183 22.9844 23.8916 22.9844C21.665 22.9844 19.0208 24.2666 17.8379 26.5462C17.0725 27.9709 17.49 29.7518 17.5596 31.6752C17.0725 31.8177 16.8638 32.1027 16.8638 33.0287C16.8638 34.3822 17.4205 36.4481 18.3946 36.8043C18.8817 38.1578 19.5775 39.3688 20.4125 40.2949C20.0646 41.2209 19.4383 42.2895 19.16 42.432C18.6729 42.7169 13.663 44.7115 10.9493 47.8459C10.1839 48.772 9.48804 53.6161 9.2793 55.1833C9.2793 55.3258 9.2793 55.397 9.2793 55.5395V55.682C9.62721 57.6053 12.5497 59.1725 20.4125 59.315V59.1013C20.8996 56.1806 21.5258 53.5449 22.6391 52.1914L23.0566 51.7639C25.8399 48.772 31.4065 46.35 34.4682 44.9965C31.8936 43.358 29.667 42.5744 29.3191 42.3607C29.0407 42.2182 28.4841 41.2922 28.1362 40.3661H27.997ZM23.4741 43.7142L22.6391 44.7115L23.4741 46.4212L22.9175 49.1282L21.3171 45.9938L19.7167 47.6322L19.5079 43.4293L20.6908 41.4346L23.5437 43.7854L23.4741 43.7142ZM28.6928 47.4898L27.162 45.8513L25.7704 49.1282L25.1441 46.5637L25.9791 44.6403L25.1441 43.643L27.6491 41.3634L28.832 43.358L28.6928 47.561V47.4898Z" fill="#007CDE"/>
<path d="M78.8615 55.5386C78.8615 55.5386 78.8615 55.3248 78.8615 55.1824C78.6527 53.6152 77.9569 48.7711 77.1915 47.845C74.4778 44.7106 69.4678 42.6447 68.9808 42.431C68.7024 42.2886 68.1458 41.3625 67.7979 40.4364C68.7024 39.5103 69.4678 38.2993 69.9549 36.8033C70.7899 36.3047 71.277 34.3813 71.277 33.1703C71.277 32.3154 71.0682 31.9593 70.6507 31.8168C70.7203 30.1071 70.9986 28.255 70.3724 26.9727C69.1895 24.5507 65.9191 23.0547 63.6925 23.0547C61.4658 23.0547 58.8217 24.3369 57.6388 26.6165C56.8734 28.0412 57.2909 29.8222 57.3605 31.7455C56.8734 31.888 56.6647 32.173 56.6647 33.099C56.6647 34.4525 57.2213 36.5184 58.1955 36.8746C58.6825 38.2281 59.3784 39.4391 60.2829 40.3652C59.935 41.2912 59.3088 42.3598 59.0305 42.5023C58.6825 42.6447 56.4559 43.4283 53.7422 45.138C57.2213 46.4203 62.5096 49.1273 65.1537 52.2617C66.1975 53.4727 66.8933 55.966 67.4499 59.3853C75.3128 59.2429 78.7223 57.7469 79.0702 55.8235V55.681L78.8615 55.5386ZM63.2054 43.7133L62.3704 44.7106L63.2054 46.4203L62.6487 49.056L61.1179 45.9216L59.5175 47.5601L59.3088 43.3571L60.4917 41.3625L63.3446 43.7133H63.2054ZM68.4241 47.4888L66.8933 45.8504L65.5016 49.1273L64.8754 46.4915L65.7104 44.5681L64.8754 43.5708L67.3804 41.2912L68.5633 43.2859L68.4241 47.4888Z" fill="#007CDE"/>
<path d="M66.8236 64.3012C66.8236 64.3012 66.8236 63.945 66.754 63.8025C66.4757 61.523 65.5015 54.4705 64.3186 53.117C60.3524 48.5579 51.933 45.566 51.2371 45.2098C50.8196 44.9961 49.9847 43.6426 49.4976 42.2891C50.8196 40.9356 51.8634 39.1547 52.5592 37.0176C53.7421 36.3052 54.4379 33.527 54.4379 31.7461C54.4379 30.5351 54.09 30.0364 53.4638 29.8227C53.6029 27.3294 53.9509 24.6224 53.0463 22.7703C51.4459 19.3509 46.7143 17.1426 43.4439 17.1426C40.1735 17.1426 36.4161 18.9947 34.6765 22.2716C33.6328 24.2662 34.1198 26.9732 34.259 29.6802C33.5632 29.8939 33.2153 30.3213 33.2153 31.6748C33.2153 33.5982 34.0503 36.6614 35.3723 37.0888C36.0682 39.0834 37.1119 40.7931 38.3644 42.1466C37.8773 43.5001 36.9727 44.9961 36.5552 45.281C35.8594 45.6372 27.4399 48.5579 23.4737 53.1883C22.2908 54.5418 21.3167 61.523 21.0383 63.8738C21.0383 64.0162 20.9688 64.1587 20.9688 64.3724V64.6574C21.5254 67.6493 31.5453 70.0001 43.8614 70.0001C56.1775 70.0001 66.267 67.6493 66.754 64.6574V64.3724L66.8236 64.3012ZM37.3902 52.8321L37.0423 46.7057L38.7819 43.7851L42.8872 47.2044H42.8177L41.5652 48.6291L42.7481 51.1224L41.9827 55.0404L39.6864 50.4813L37.3206 52.8321H37.3902ZM50.4021 52.7609L48.1755 50.3388L46.1576 55.1117L45.253 51.3361L46.4359 48.5579L45.1835 47.0619L48.8017 43.7851L50.5413 46.7057L50.3326 52.8321L50.4021 52.7609Z" fill="#007CDE"/>
</g>
<g style="mix-blend-mode:color-dodge">
<path d="M9.13916 55.8243L9 55.6818V55.5394C9 55.5394 9 55.2544 9 55.1832C9.20875 53.5448 9.83499 48.7719 10.7396 47.7746C13.5229 44.5689 18.4632 42.5743 18.9503 42.2894C18.9503 42.2894 19.8549 41.1496 20.1332 40.366C19.2982 39.4399 18.5328 38.2289 18.1153 36.9466C17.0716 36.5192 16.5149 34.3821 16.5149 33.0286C16.5149 32.1025 16.8628 31.6751 17.2107 31.6751C17.2107 30.6778 17.002 29.6805 17.002 28.7544C17.002 27.9708 17.0716 27.116 17.4891 26.4749C18.7416 24.1241 21.4553 22.8418 23.6819 22.8418C25.9781 22.8418 29.2485 24.3378 30.501 26.831C30.8489 27.5434 30.9185 28.327 30.9185 29.1819C30.9185 30.0367 30.8489 30.8915 30.7097 31.6039C31.1968 31.7464 31.4751 32.245 31.4751 33.0999C31.4751 34.3821 30.9881 36.3055 30.1531 36.8042C29.666 38.2289 28.9702 39.5112 28.0656 40.4372C28.4135 41.2921 28.9702 42.1469 29.1789 42.2181C29.1789 42.2181 31.7535 43.2155 34.328 45.1388C31.2664 46.4923 25.6998 48.9144 22.9861 51.9063L22.5686 52.3337C21.5249 53.616 20.8986 56.2517 20.4115 59.1724L20.2724 59.5286C12.34 59.3861 9.41749 57.8189 9.13916 55.8956V55.8243ZM9.27833 55.6106C9.55666 57.3915 12.4095 58.9587 20.1332 59.3149V59.1012C20.6203 56.1805 21.2465 53.5448 22.4294 52.12L22.8469 51.6926C24.3082 50.1254 26.5348 48.7007 28.7614 47.5609H28.5527L27.3002 45.9224L25.6302 49.1993L25.004 46.4923L25.839 44.7114L25.004 43.4292L27.7177 41.2208L28.9702 43.2867L28.831 47.4896C30.8489 46.4211 32.8668 45.6375 34.328 45.1388C31.6839 43.5716 29.5268 42.7168 29.1789 42.5743C28.7614 42.3606 28.2744 41.4345 27.9264 40.5085H28.0656V40.366C28.831 39.4399 29.5964 38.2289 30.1531 36.7329C30.8489 36.3055 31.4056 34.3821 31.4056 33.2423C31.4056 32.3875 31.1968 32.1738 30.7793 31.8888C30.7793 31.034 30.9185 30.1792 30.9185 29.3243C30.9185 28.4695 30.8489 27.6859 30.501 27.116C29.3877 24.7652 26.1173 23.2692 23.9602 23.2692C21.8728 23.2692 19.159 24.5515 18.0457 26.7598C17.6978 27.4009 17.6282 28.1133 17.6282 28.8969C17.6282 29.823 17.7674 30.8203 17.6282 31.9601C17.2107 32.1025 17.0716 32.245 17.002 33.1711C17.002 34.4534 17.6282 36.5905 18.5328 36.8754C19.0199 38.2289 19.7157 39.3687 20.5507 40.4372C20.2028 41.4345 19.6461 42.4319 19.2286 42.6456C18.7416 42.8593 13.8012 44.9251 11.0875 48.0595H11.0179C10.3221 48.8431 9.55666 53.7585 9.34791 55.3257C9.34791 55.3257 9.34791 55.5394 9.34791 55.6106H9.27833ZM25.2127 43.4292L26.1173 44.6402L25.2823 46.4923L25.6302 49.0569L27.2306 45.7087L28.4831 47.0622L28.6223 43.2867L27.6481 41.3633L25.1431 43.4292H25.2127ZM21.3857 46.0649L19.507 47.5609L19.2982 43.2867L20.7594 41.2208L23.2644 43.6429H23.4036V43.7853H23.5427L22.7078 44.6402L23.5427 46.4923L22.7078 49.1993L21.3857 46.0649ZM22.7078 49.0569L23.2644 46.4211L22.499 44.4977L23.2644 43.5716L20.829 41.2921L19.6461 43.2155V47.3472L21.4553 45.78L22.7078 48.9856V49.0569Z" fill="#E5F3FF"/>
<path d="M64.8061 52.2625C62.1619 49.1993 56.8737 46.4923 53.3945 44.9251C56.1082 43.2155 58.4045 42.4319 58.6828 42.2894C58.6828 42.2894 59.5874 41.1496 59.9353 40.366C59.1003 39.4399 58.3349 38.2289 57.9174 36.9466C56.8737 36.5192 56.317 34.3821 56.317 33.0286C56.317 32.1025 56.5953 31.6751 57.0128 31.6751C57.0128 30.6778 56.8041 29.6805 56.8041 28.7544C56.8041 27.9708 56.8737 27.1872 57.2912 26.4749C58.5436 24.1241 61.3269 22.8418 63.484 22.8418C65.7802 22.8418 69.0506 24.3378 70.3031 26.831C70.651 27.5434 70.7206 28.327 70.7206 29.2531C70.7206 30.1079 70.651 30.9628 70.5118 31.6751C70.9989 31.8176 71.2772 32.245 71.2772 33.1711C71.2772 34.4534 70.7902 36.3767 69.9552 36.8754C69.4681 38.3714 68.7027 39.6536 67.7981 40.366C68.146 41.2208 68.7027 42.2181 68.9114 42.2894C69.3985 42.5743 74.4084 44.5689 77.1222 47.7746C78.0267 48.8431 78.653 53.616 78.7921 55.1832C78.7921 55.1832 78.8617 55.4681 78.8617 55.5394L78.7226 55.8956L78.8617 55.7531C78.4442 57.8902 74.9651 59.2437 66.8935 59.3149C66.3369 55.8956 65.6411 53.4023 64.6669 52.2625H64.8061ZM65.0148 52.0488C66.0585 53.331 66.7544 55.8243 67.1719 59.1012C75.0347 58.9587 78.3746 57.4628 78.7921 55.5394L78.653 55.6818V55.5394C78.653 55.5394 78.653 55.2544 78.5834 55.1832C78.3746 53.616 77.6788 48.7007 76.983 47.9171C74.2693 44.7827 69.3289 42.788 68.8418 42.5031C68.4244 42.2894 67.9373 41.3633 67.5894 40.2948C68.4939 39.3687 69.1898 38.1577 69.7464 36.6617C70.4422 36.2343 70.9989 34.3109 70.9989 33.0999C70.9989 32.245 70.7902 32.0313 70.3727 31.7464C70.3727 30.8915 70.5118 30.0367 70.5118 29.1819C70.5118 28.327 70.4422 27.5434 70.0943 26.9735C68.981 24.6227 65.7106 23.1267 63.5536 23.1267C61.4661 23.1267 58.7524 24.409 57.6391 26.6173C57.2911 27.2585 57.2216 27.9708 57.2216 28.7544C57.2216 29.6805 57.3607 30.6778 57.2216 31.8176C56.8737 31.9601 56.6649 32.1025 56.5953 33.0286C56.5953 34.3109 57.2216 36.448 58.0566 36.7329C58.5436 38.0864 59.2395 39.2262 60.144 40.2948C59.7961 41.2921 59.2395 42.2894 58.822 42.5031C58.4741 42.7168 56.2474 43.4292 53.5337 44.8539C55.2037 45.495 57.2216 46.4211 59.2395 47.5609L59.0307 43.2867L60.4919 41.2208L62.9969 43.6429H63.1361V43.7853H63.2752L62.4403 44.6402L63.2752 46.4923L62.4403 49.1993L61.1182 46.1362L59.2395 47.6321C61.4661 48.9144 63.5536 50.4103 65.0148 52.0488ZM62.4403 49.1281L62.9969 46.5636L62.2315 44.6402L62.9969 43.7853L60.5615 41.5058L59.3786 43.4292V47.5609L61.1878 45.9937L62.4403 49.1281ZM64.7365 46.5636L65.5715 44.7827L64.7365 43.5716L67.4502 41.2921L68.7027 43.3579L68.5635 47.5609H68.2852L67.0327 45.9224L65.3627 49.1993L64.7365 46.4923V46.5636ZM64.9452 43.5716L65.8498 44.7827L65.0148 46.6348L65.3627 49.1993L66.9631 45.8512L68.2156 47.2047L68.3548 43.4292L67.3806 41.4345L64.9452 43.5004V43.5716Z" fill="#E5F3FF"/>
<path d="M20.9673 64.6573L20.8281 64.5148V64.3011C20.8281 64.3011 20.8281 63.9449 20.8977 63.8024C21.176 61.5229 22.1502 54.5417 23.3331 53.0457C27.2993 48.4153 35.7884 45.4946 36.4842 45.1384C36.8321 44.996 37.7367 43.5 38.2933 42.289C37.0408 40.9355 35.9971 39.2258 35.3709 37.3024C33.9096 36.7325 33.0746 33.6694 33.0746 31.746C33.0746 30.4637 33.4921 29.8226 34.1184 29.7513C34.0488 28.3266 33.8401 26.9019 33.8401 25.5484C33.8401 24.3374 33.9792 23.2688 34.5359 22.2715C36.345 18.8522 40.3112 17 43.4424 17C46.7128 17 51.514 19.2083 53.2536 22.7702C53.7406 23.7675 53.8798 24.9073 53.8798 26.1895C53.8798 27.4005 53.7406 28.6828 53.6015 29.7513C54.2277 29.9651 54.6452 30.6062 54.6452 31.8172C54.6452 33.6694 53.9494 36.3763 52.7665 37.1599C52.0707 39.297 51.0269 41.078 49.7049 42.289C50.1919 43.5712 51.0269 44.9247 51.3748 45.0672C52.0707 45.4234 60.4901 48.3441 64.5259 52.9745C65.7784 54.4704 66.683 61.3804 66.9613 63.66C66.9613 63.66 67.0309 64.0161 67.0309 64.1586V64.3011L66.8917 64.586L67.0309 64.4436C66.3351 67.6492 56.3152 69.8575 43.9295 69.9288C31.6134 69.9288 21.5239 67.6492 21.0369 64.586L20.9673 64.6573ZM66.8222 64.3723L66.683 64.5148V64.2298C66.683 64.2298 66.683 63.9449 66.6134 63.8024C66.3351 61.5229 65.3609 54.4704 64.2476 53.2594C60.351 48.7003 51.9315 45.7796 51.1661 45.4234C50.679 45.1384 49.844 43.7849 49.357 42.289C50.679 40.9355 51.7228 39.1546 52.4882 37.0175C53.6015 36.3763 54.3669 33.5981 54.2973 31.8884C54.2973 30.6774 53.9494 30.25 53.3232 29.9651C53.3927 28.754 53.5319 27.4718 53.5319 26.2608C53.5319 25.0497 53.3927 23.9099 52.9752 22.9839C51.3053 19.5645 46.5736 17.3562 43.4424 17.3562C40.3808 17.3562 36.4842 19.2083 34.8142 22.414C34.3271 23.3401 34.188 24.4086 34.188 25.5484C34.188 26.8306 34.3967 28.2554 34.3271 29.8938C33.7009 30.0363 33.4226 30.3925 33.353 31.6747C33.353 33.5981 34.2575 36.5901 35.51 37.0887C36.2059 39.0121 37.2496 40.7218 38.5021 42.2177C38.015 43.6425 37.18 45.1384 36.6234 45.4234C35.8579 45.7796 27.508 48.7003 23.5418 53.2594C22.4285 54.4704 21.4544 61.5229 21.176 63.8737C21.176 63.8737 21.1065 64.1586 21.1065 64.3011V64.4436C21.5239 67.2218 31.6134 69.7151 43.8599 69.7151C56.176 69.7151 66.1959 67.2218 66.7526 64.3723H66.8222ZM39.8937 50.5524L37.5279 52.9032H37.2496L36.9713 46.6344L38.9892 43.7137L42.8162 47.2043L42.9554 47.0618V47.2755H43.0249L41.842 48.5578L43.0249 51.1936L41.9812 55.1116L39.9633 50.5524H39.8937ZM41.9116 54.9691L42.677 51.1936L41.4941 48.4866L42.677 47.1331L38.9196 43.8562L37.18 46.6344L37.4583 52.4046L39.8241 50.3387L41.842 54.9691H41.9116ZM45.182 51.1936L46.3649 48.5578L45.182 46.8481L49.009 43.5712L50.7486 46.5632L50.5398 52.6895H50.2615L48.3132 50.3387L46.017 55.1116L45.1124 51.2648L45.182 51.1936ZM45.3907 46.8481L46.6432 48.4866L45.4603 51.1936L46.017 54.9691L48.2436 50.125L50.1919 52.2621L50.4007 46.6344L48.8699 43.7849L45.3212 46.8481H45.3907Z" fill="#E5F3FF"/>
</g>
</g>
<defs>
<clipPath id="clip0_4772_3521">
<rect width="70" height="53" fill="white" transform="translate(9 17)"/>
</clipPath>
</defs>
</svg>
