<svg width="88" height="88" viewBox="0 0 88 88" fill="none" xmlns="http://www.w3.org/2000/svg">
<circle cx="44" cy="44" r="44" fill="#E4FDF9"/>
<g clip-path="url(#clip0_4772_2277)">
<g opacity="0.8">
<path d="M24.7666 32.1651C26.4648 32.5261 28.1631 31.8041 29.1229 30.5045C30.3043 30.5045 30.9688 31.3709 31.1165 31.5875C32.7409 33.7534 33.4793 37.1468 32.7409 40.8289C32.7409 41.0455 32.6671 41.1899 32.5932 41.4065C32.5932 41.6231 32.9624 41.5509 33.1839 41.4787L39.5338 40.4679C39.5338 40.4679 41.3798 40.3235 41.6013 39.0961C41.6751 38.4463 41.4536 37.8687 41.0106 37.5078H40.9367C40.1245 36.497 39.8292 35.2696 40.1245 33.97C40.5676 31.6597 42.8565 30.2157 45.2192 30.6489C47.582 31.0821 49.1326 33.3203 48.6157 35.6306C48.6157 35.9194 48.5419 36.0638 48.3942 36.4248C48.2465 36.7858 48.1727 36.858 48.0989 37.0746C47.8035 37.9409 48.2465 39.0239 49.0587 39.0239L56.9592 37.7965C56.9592 37.7965 57.6976 37.58 57.6237 37.3634C56.3685 35.7028 55.7778 32.3095 56.2947 28.4108C56.2947 28.1942 56.2947 26.9668 58.2883 27.3278C58.6574 27.4722 59.0266 27.6166 59.3958 27.6888C61.7586 28.122 64.0475 26.678 64.4905 24.3677C64.9335 22.0573 63.4568 19.8192 61.094 19.386C59.5435 19.0972 57.9929 19.6026 57.033 20.6856C55.7778 20.5412 54.8918 19.4582 54.7441 19.2416C53.7104 17.5088 53.2674 14.4043 53.7104 10.7944C53.7104 10.3612 53.1197 10.1446 52.6767 10.2168L44.9239 11.4442C44.9239 11.4442 44.4809 11.5886 44.407 12.094C44.407 12.5272 44.407 12.8159 44.9239 13.1047C46.0314 13.7545 46.5483 15.4873 46.2529 17.0756C45.8099 19.386 43.521 20.83 41.1582 20.3968C38.7955 19.9636 37.2449 17.7254 37.7618 15.4151C37.8356 15.0541 37.9833 14.6931 38.131 14.4043C38.2048 14.2599 38.2786 14.1155 38.3525 13.9711C38.5001 13.3935 38.131 12.9603 37.6879 12.7437C37.6141 12.7437 37.3926 12.7437 37.3926 12.7437L29.0491 14.0433C29.0491 14.0433 28.7538 14.0433 28.8276 14.1877C30.2305 16.3537 30.8212 19.5304 30.0828 22.9237C30.0828 23.0681 29.8613 23.5735 29.7136 23.7901C29.4183 24.2955 28.6799 24.5843 27.7939 24.5121C27.4247 24.3677 26.834 24.0789 26.4648 24.0067C24.1021 23.5735 22.0347 24.9453 21.5178 27.2556C21.0748 29.5659 22.5515 31.8041 24.9143 32.2373L24.7666 32.1651Z" fill="#007CDE"/>
<path d="M62.9396 43.9343C63.5303 44.8729 63.678 45.9559 63.5303 46.9667C63.3088 48.3384 62.4966 49.638 61.1675 50.36C61.1675 50.36 60.4292 50.721 60.06 50.7932C59.5431 51.1542 59.4693 51.3708 59.4693 51.443C59.4693 51.443 59.4693 51.6595 59.617 51.8039C61.7582 54.8363 64.3425 56.7856 65.9669 57.0744H66.1884C66.5576 57.291 66.7052 57.7964 66.6314 58.013C66.5576 58.4462 66.3361 58.6628 66.1884 58.8794L61.6105 64.2942C61.6105 64.2942 60.7983 64.7274 60.4292 64.6552C59.617 64.5108 59.1001 63.9333 58.7309 63.2835C58.7309 63.2835 58.1402 62.1283 58.0664 62.0561C57.6234 61.2619 56.8112 60.8287 55.8513 60.6843C54.9653 60.5399 53.9316 60.6843 53.1194 61.2619C52.1595 61.7673 51.5688 62.7781 51.4211 63.7889C51.3473 64.5108 51.4211 65.305 51.8642 66.027C52.4548 67.0378 53.1194 67.6876 54.0054 67.832C54.0054 67.832 54.3008 67.832 54.3746 67.832C55.0391 67.9042 55.6298 68.3374 55.999 68.9149C56.2943 69.3481 56.3682 69.8535 56.2943 70.2145C56.1467 71.2253 55.4083 71.9473 55.4083 71.9473L51.7903 76.207C51.7903 76.207 51.6426 76.3514 51.5688 76.4958C51.5688 76.4958 51.2735 76.8567 50.7566 76.7845C50.7566 76.7845 50.4613 76.7123 50.3874 76.6402H50.2398V76.4236C50.2398 76.4236 49.9444 76.1348 49.8706 75.9182C48.0985 73.0302 45.5142 71.1531 43.2253 70.7199H43.0776C43.0776 70.7199 42.3393 70.6477 41.8963 70.8643C41.8963 70.8643 41.8963 71.3697 41.8963 71.5863C41.6748 72.958 40.8626 74.1854 39.6073 74.9796C38.6475 75.5572 37.5399 75.7016 36.5062 75.5572C35.1033 75.3406 33.8481 74.5464 33.0359 73.319C32.4452 72.3805 32.2975 71.2975 32.4452 70.2867C32.6667 68.9149 33.4789 67.6154 34.808 66.8934C34.808 66.8934 35.4725 66.5324 35.8417 66.4602C35.8417 66.4602 36.4324 65.8104 36.4324 65.5938C36.4324 65.5938 36.4324 65.5216 36.4324 65.4494C36.4324 65.4494 36.4324 65.2328 36.4324 65.1606V65.0162C34.808 62.2727 32.4452 60.4677 30.304 59.8902C30.304 59.8902 29.9348 59.7458 29.8609 59.5292C29.8609 59.5292 29.7871 59.1682 29.7871 59.096C29.8609 58.6628 30.0086 58.6628 30.0825 58.5906L35.1772 52.4537C35.1772 52.4537 35.251 52.3093 35.694 52.0927C35.694 52.0927 36.2847 51.9483 36.58 52.0205C37.0969 52.0205 37.5399 52.3815 37.8353 52.8147C37.8353 52.8147 38.0568 53.2479 38.0568 53.3923C38.0568 53.3923 38.2783 53.8977 38.426 54.1143C39.0166 55.0529 39.9027 55.6305 40.9364 55.7749C41.6748 55.8471 42.4869 55.7749 43.1515 55.3417C44.1113 54.8363 44.702 53.8977 44.8497 52.8869C44.9235 52.1649 44.8497 51.3708 44.4067 50.721C43.8898 49.8546 42.8561 49.1326 42.1178 49.0604C42.1178 49.0604 41.7486 49.0604 41.6748 49.0604C41.6748 49.0604 41.1579 49.2048 40.9364 49.1326C40.4195 49.1326 40.0504 48.6994 39.9027 48.4106C39.9027 48.4106 39.6812 47.6886 39.6812 47.4721C39.6812 47.4721 39.8288 46.9667 39.9027 46.9667L44.6282 41.1908C44.9974 40.8298 45.4404 40.541 46.1049 40.541C46.1049 40.541 46.6218 40.7576 46.8433 40.9742C48.8369 43.7177 51.1258 45.5227 52.7502 46.0281H52.824C52.824 46.0281 53.8577 46.1003 54.3746 45.8837C54.3746 45.8837 54.3746 45.7393 54.3746 45.5949C54.5961 44.2231 55.4083 42.9236 56.6635 42.2016C57.6234 41.624 58.7309 41.4796 59.7646 41.624C61.1675 41.8406 62.4227 42.6348 63.2349 43.8621L62.9396 43.9343ZM58.5833 52.5981C58.5833 52.5981 58.0664 52.0205 58.1402 51.2986C58.2141 50.721 58.6571 50.1434 59.4693 49.638H59.617C59.617 49.638 60.2077 49.3492 60.503 49.2048C61.4629 48.6994 62.0536 47.7608 62.2012 46.7501C62.2751 46.0281 62.2012 45.2339 61.7582 44.5841C61.2414 43.6455 60.2815 43.068 59.2478 42.9236C58.5094 42.8514 57.6972 42.9236 57.0327 43.3567C56.0728 43.9343 55.4821 44.8007 55.4083 45.8115C55.4083 45.8115 55.4083 46.1003 55.4083 46.3169V46.6779L55.113 46.8945C54.0054 47.6164 52.824 47.5442 52.3072 47.4721C52.3072 47.4721 52.0857 47.4721 52.0118 47.4721C49.9444 46.8223 47.5817 44.8729 45.5881 42.0572L45.4404 42.1294L40.7887 47.7608C40.7887 47.7608 40.7887 47.7608 40.7887 47.833C40.7887 47.833 40.8626 47.9052 41.0102 47.833C41.0102 47.833 41.6748 47.7608 41.9701 47.833C43.2991 48.0496 44.4805 48.9882 45.2189 50.1434C45.8096 51.082 45.9573 52.1649 45.8096 53.1757C45.5881 54.5475 44.7759 55.847 43.4468 56.569C42.4869 57.1466 41.3794 57.291 40.3457 57.1466C38.9428 56.93 37.6138 56.1358 36.8754 54.9085C36.8754 54.9085 36.5062 54.1865 36.3585 53.8255C36.3585 53.8255 36.3585 53.6089 36.3585 53.5367C36.3585 53.5367 36.2109 53.3923 36.137 53.3923C36.137 53.3923 36.0632 53.3923 35.9155 53.3923L31.3377 58.9516C33.6266 59.818 35.8417 61.7673 37.4661 64.3664C37.4661 64.3664 37.6876 64.8718 37.7614 65.2328C37.7614 65.2328 37.7614 65.666 37.7614 65.8104C37.6138 66.5324 37.1707 67.1822 36.5062 67.6154H36.2847C36.2847 67.6154 35.694 67.9042 35.4725 68.0486C34.5126 68.6261 33.9219 69.4925 33.7743 70.5033C33.7004 71.2253 33.7743 72.0195 34.2173 72.6693C34.7341 73.6078 35.694 74.1854 36.7277 74.3298C37.4661 74.402 38.2783 74.3298 38.9428 73.8966C39.9027 73.3912 40.4934 72.4527 40.5672 71.4419C40.5672 71.4419 40.5672 70.9365 40.5672 70.6477V70.2867L40.7887 70.0701C41.7486 69.2759 42.8561 69.2759 43.2991 69.3481H43.5207C46.2526 69.9257 49.0584 71.9473 50.9781 75.0518L54.3746 71.0087C54.3746 71.0087 54.5223 70.8643 54.6699 70.6477C54.6699 70.6477 54.9653 70.1423 54.9653 69.9257C54.9653 69.9257 54.9653 69.6369 54.9653 69.5647C54.9653 69.5647 54.5223 69.1315 54.3008 69.1315H53.8577C52.3072 68.9149 51.4211 67.7598 50.7566 66.6046C50.1659 65.666 50.0183 64.583 50.1659 63.5001C50.3874 62.1283 51.1996 60.8287 52.5287 60.0345C53.6362 59.3848 54.9653 59.1682 56.2205 59.3126C57.4757 59.457 58.6571 60.1067 59.3955 61.3341C59.3955 61.3341 59.9123 62.3449 60.06 62.6337C60.2815 63.0669 60.6507 63.2835 60.7245 63.2835L65.0809 58.1574C62.9396 57.4354 60.6507 55.4139 58.5833 52.5259V52.5981Z" fill="#007CDE"/>
</g>
<path d="M32.3708 41.3341C32.3708 41.3341 32.4446 40.9009 32.5185 40.7565C32.6661 39.7457 32.8138 38.8071 32.8138 37.8685C32.8138 35.4138 32.1493 33.1756 30.9679 31.6595C30.9679 31.6595 30.2295 30.7209 29.3435 30.6487C28.4575 31.7317 27.1284 32.4537 25.6517 32.4537H25.5778C25.5778 32.4537 24.9872 32.4537 24.6918 32.3815V31.8761C25.061 31.8761 25.3563 31.9483 25.5778 31.9483C26.9069 31.9483 28.0883 31.2985 29.0482 30.2155C30.3772 30.2155 31.1156 31.1541 31.2632 31.3707C32.5185 33.0312 33.183 35.2694 33.183 37.8685C33.183 38.8071 33.1091 39.8179 32.8876 40.8287C32.8876 40.8287 32.8876 41.1175 32.8138 41.2619H33.0353L39.3852 40.2511C39.3852 40.2511 41.1573 40.0345 41.2311 39.0959C41.2311 39.0959 41.2311 38.9515 41.2311 38.8071C41.2311 38.3739 41.0096 37.9407 40.7143 37.7241H40.6404C39.9759 36.8578 39.6806 35.9192 39.6806 34.9806C39.6806 34.9806 39.6806 34.3308 39.8282 33.9698C40.2713 31.8761 42.191 30.3599 44.3323 30.3599C44.3323 30.3599 44.923 30.3599 45.2183 30.4321C47.3596 30.8653 48.9101 32.7425 48.9101 34.8362C48.9101 34.8362 48.9101 35.4138 48.8363 35.7748C48.8363 35.7748 48.7624 36.208 48.5409 36.569C48.5409 36.569 48.3194 37.0022 48.2456 37.2188C48.2456 37.2188 48.2456 37.5075 48.2456 37.6519C48.2456 38.3017 48.6148 38.8071 49.0578 38.8071L56.8844 37.5797C56.8844 37.5797 57.3274 37.5075 57.3274 37.4353C56.3676 36.0636 55.7769 33.8254 55.7769 31.0819C55.7769 30.2155 55.7769 29.2769 55.9246 28.3384C55.9246 28.3384 55.9984 26.9666 57.4751 26.9666C57.4751 26.9666 57.9181 26.9666 58.2873 27.0388C58.2873 27.0388 58.9518 27.3276 59.321 27.3998C59.321 27.3998 59.8379 27.472 60.1332 27.472C62.053 27.472 63.7512 26.1724 64.1204 24.2231C64.1204 24.2231 64.1204 23.7177 64.1204 23.4289C64.1204 21.5517 62.7913 19.8912 60.7978 19.5302C60.7978 19.5302 60.2809 19.458 59.9856 19.458C58.8042 19.458 57.6966 19.9634 56.7368 20.8297C55.3339 20.6131 54.4478 19.5302 54.3002 19.3136C53.488 17.9418 53.0449 15.8481 53.0449 13.3933C53.0449 12.5269 53.0449 11.6606 53.1926 10.7942C53.1926 10.7942 52.8973 10.4332 52.6019 10.4332H52.5281L44.7753 11.6606C44.7753 11.6606 44.4799 11.7328 44.4061 12.0938C44.4061 12.0938 44.4061 12.2381 44.4061 12.3103C44.4061 12.3103 44.4061 12.5991 44.8491 12.8157C45.8828 13.3933 46.3997 14.6929 46.3997 16.0647C46.3997 16.0647 46.3997 16.7144 46.3258 17.0032C45.8828 19.1692 43.9631 20.6131 41.8218 20.6131C41.8218 20.6131 41.2311 20.6131 40.9358 20.5409C38.7945 20.1078 37.244 18.2306 37.244 16.1369C37.244 16.1369 37.244 15.5593 37.3178 15.2705C37.3917 14.9095 37.5393 14.5485 37.687 14.1875C37.687 14.1875 37.8347 13.9709 37.8347 13.8265V13.6099C37.8347 13.6099 37.6132 12.9601 37.3917 12.8879H37.1701L28.9005 14.1153L28.7528 13.8987C29.7865 15.4871 30.3772 17.5808 30.3772 19.8912C30.3772 20.8297 30.2295 21.8405 30.0819 22.8513C30.0819 22.8513 29.8604 23.5011 29.7127 23.7899C29.3435 24.3675 28.679 24.6562 27.8668 24.6562H27.9406C27.9406 24.6562 27.7191 24.6562 27.4976 24.6562C27.4976 24.6562 26.5377 24.2231 26.2424 24.1509C26.2424 24.1509 25.6517 24.0787 25.4302 24.0787H25.3563C23.5104 24.0787 21.9599 25.306 21.5907 27.2554C21.5907 27.2554 21.5169 27.7608 21.5169 28.0496C21.5169 29.9267 22.8459 31.5873 24.8395 32.0205H24.7656V32.5259C22.4767 32.0927 21 30.2155 21 28.1218C21 28.1218 21 27.5442 21.0738 27.2554C21.5169 25.1616 23.2151 23.7177 25.3563 23.7177C25.3563 23.7177 25.947 23.7177 26.3162 23.7899C26.7592 23.8621 27.3499 24.1509 27.6453 24.2953C27.6453 24.2953 27.7929 24.2953 27.9406 24.2953C28.6051 24.2953 29.122 24.0065 29.3435 23.6455C29.3435 23.6455 29.6388 22.9957 29.6388 22.9235C29.8604 21.9127 29.9342 20.9741 29.9342 20.0356C29.9342 17.7974 29.4173 15.8481 28.5313 13.9709L28.8266 13.8265L37.244 12.5269H37.6132C38.0562 12.7435 38.4992 13.2489 38.4992 13.7543C38.4992 13.7543 38.4992 13.8987 38.4992 14.0431C38.4992 14.0431 38.3515 14.4041 38.2777 14.5485C38.2777 14.5485 37.9823 15.1983 37.9085 15.5593C37.9085 15.5593 37.8347 16.0647 37.8347 16.3534C37.8347 18.2306 39.1637 19.8912 41.1573 20.2522C41.1573 20.2522 41.6742 20.3244 41.9695 20.3244C43.8892 20.3244 45.5875 19.0248 45.9567 17.1476C45.9567 17.1476 46.0305 16.57 46.0305 16.2812C46.0305 15.0539 45.5136 13.8987 44.7753 13.4655C44.2584 13.2489 44.0369 12.8879 44.0369 12.5269C44.0369 12.5269 44.0369 12.3103 44.0369 12.2381C44.1846 11.5884 44.7014 11.444 44.7753 11.3718L52.4543 10H52.6758C53.1188 10 53.7095 10.1444 53.7833 10.7942C53.6356 11.7328 53.6356 12.5991 53.6356 13.4655C53.6356 15.8481 54.0787 17.9418 54.817 19.1692C54.817 19.1692 55.7769 20.3244 56.7368 20.5409C57.549 19.6024 58.8042 19.0248 60.1332 19.0248C60.1332 19.0248 60.7239 19.0248 61.0193 19.097C63.1605 19.5302 64.7111 21.4073 64.7111 23.5011C64.7111 23.5011 64.7111 24.0787 64.6372 24.3675C64.1942 26.4612 62.2745 27.9774 60.1332 27.9774C60.1332 27.9774 59.5425 27.9774 59.2472 27.9052C58.8042 27.833 58.435 27.6886 58.1396 27.5442C58.1396 27.5442 57.6966 27.472 57.4751 27.472C56.3676 27.472 56.4414 28.194 56.4414 28.4106C56.2937 29.3491 56.2937 30.2155 56.2937 31.0819C56.2937 33.7532 56.8106 35.9192 57.6966 37.4353H57.7705C57.6966 37.9407 57.1798 37.9407 56.8844 38.0129L48.9839 39.1681C48.1717 39.1681 47.7287 38.3739 47.7287 37.5797C47.7287 37.5797 47.7287 37.1466 47.8026 37.0022C47.8026 37.0022 47.9502 36.6412 48.0979 36.2802C48.0979 36.2802 48.2456 35.847 48.3194 35.5582C48.3194 35.5582 48.3194 34.9806 48.3194 34.764C48.3194 32.8869 46.9904 31.2263 45.0706 30.8653C45.0706 30.8653 44.5538 30.7931 44.2584 30.7931C42.3387 30.7931 40.6404 32.0927 40.2713 34.042C40.2713 34.042 40.1974 34.6196 40.1974 34.9084C40.1974 35.7748 40.4928 36.569 41.0096 37.2188C41.4526 37.6519 41.6742 38.1573 41.6742 38.7349C41.6742 38.7349 41.6742 38.9515 41.6742 39.0959C41.3788 40.5399 39.3852 40.6121 39.3852 40.6843L33.0353 41.695C33.0353 41.695 32.8138 41.695 32.6661 41.695C32.6661 41.695 32.2969 41.6228 32.2231 41.2619L32.3708 41.3341Z" fill="#E5F3FF"/>
<path d="M50.9032 76.9991H50.7555C50.7555 76.9991 50.4602 76.9269 50.3125 76.8547L50.091 76.7103V76.5659C50.091 76.5659 49.7956 76.2771 49.7218 76.1327C48.0236 73.317 45.4393 71.4399 43.2242 71.0067H43.0765C43.0765 71.0067 42.9289 71.0067 42.7812 71.0067C42.7812 71.0067 42.2643 71.0067 42.1905 71.0067C42.1905 71.0067 42.1905 71.5121 42.1905 71.8009C41.969 73.2448 41.1568 74.5444 39.7539 75.3386C38.9417 75.7718 38.0557 75.9884 37.1696 75.9884C37.1696 75.9884 36.6528 75.9884 36.4313 75.9884C34.9545 75.7718 33.6255 74.9776 32.8133 73.6058C32.3703 72.8116 32.0749 71.9452 32.0749 71.0789C32.0749 71.0789 32.0749 70.6457 32.0749 70.3569C32.2964 68.9129 33.1086 67.6133 34.5115 66.8192C34.5115 66.8192 35.2499 66.4582 35.5452 66.386C35.5452 66.386 36.0621 65.8084 36.0621 65.664V65.5196V65.303H35.9882C34.3639 62.5595 32.0749 60.7545 30.0075 60.2491C30.0075 60.2491 29.4907 60.1047 29.343 59.8159C29.343 59.8159 29.1953 59.4549 29.1953 59.3105C29.1953 59.3105 29.1953 59.2383 29.1953 59.1662C29.2691 58.733 29.4907 58.5886 29.4907 58.5886L34.6592 52.3795C34.6592 52.3795 34.8069 52.1629 35.176 52.0185C35.176 52.0185 35.6191 51.8741 35.8406 51.8741C35.8406 51.8741 35.9882 51.8741 36.1359 51.8741C36.7266 51.8741 37.2435 52.3073 37.5388 52.8127C37.5388 52.8127 37.7603 53.3181 37.7603 53.4625C37.7603 53.4625 37.908 53.9679 38.0557 54.1845C38.5725 55.0508 39.4586 55.5562 40.3446 55.7006C40.3446 55.7006 40.6399 55.7006 40.7876 55.7006C41.3783 55.7006 41.8952 55.5562 42.412 55.2674C43.298 54.7621 43.8149 53.8957 43.9626 53.0293C43.9626 53.0293 43.9626 52.7405 43.9626 52.5961C43.9626 52.0185 43.8149 51.5131 43.5195 51.0077C43.0765 50.2136 42.0428 49.4916 41.3783 49.4916C41.3783 49.4916 41.2306 49.4916 41.1568 49.4916H41.083C41.083 49.4916 40.6399 49.5638 40.4184 49.5638C40.4184 49.5638 40.2708 49.5638 40.1969 49.5638C39.5324 49.4916 39.1632 49.0584 38.9417 48.6974C38.9417 48.6974 38.6464 48.0476 38.6464 47.7588C38.6464 47.7588 38.6464 47.6144 38.6464 47.5422C38.6464 47.5422 38.794 46.9646 38.8679 46.9646L43.5934 41.1888C43.9626 40.8278 44.4056 40.4668 45.0701 40.4668C45.0701 40.4668 45.1439 40.4668 45.2178 40.4668C45.2178 40.4668 45.8823 40.6834 46.1038 40.9722C48.0236 43.6435 50.3125 45.4485 51.863 45.9539H51.9369C51.9369 45.9539 52.1584 45.9539 52.3061 45.9539C52.3061 45.9539 53.0444 45.9539 53.1921 45.9539V45.6651C53.4136 44.2211 54.2996 42.9215 55.6287 42.1274C56.4409 41.6942 57.3269 41.4054 58.213 41.4054C58.213 41.4054 58.656 41.4054 58.9513 41.4054C60.4281 41.622 61.7571 42.4162 62.5693 43.7879L62.3478 43.9323L62.1263 44.0767C61.3879 42.8493 60.1327 42.1274 58.8037 41.9108C58.8037 41.9108 58.3606 41.9108 58.1391 41.9108C57.3269 41.9108 56.5886 42.1274 55.8502 42.5605C54.595 43.2825 53.8566 44.5099 53.6351 45.7373L53.4874 46.1705C53.0444 46.3149 52.6014 46.3871 52.2322 46.3871C52.2322 46.3871 51.9369 46.3871 51.7892 46.3871H51.6415C49.8695 45.8095 47.6544 43.9323 45.587 41.1888C45.587 41.1888 45.2178 40.9 45.0701 40.8278H44.9963C44.4794 40.8278 44.1841 41.0444 43.8887 41.4054L39.1632 47.0368C39.1632 47.0368 39.0894 47.2534 39.0155 47.6144C39.0155 47.6144 39.0155 48.1198 39.237 48.3364C39.237 48.3364 39.6801 48.914 40.0492 48.914H40.2708C40.2708 48.914 40.5661 48.914 40.7138 48.914C40.7138 48.914 40.9353 48.914 41.0091 48.914C41.0091 48.914 41.2306 48.914 41.3045 48.914C42.1905 49.0584 43.2242 49.7804 43.7411 50.719C44.0364 51.2965 44.2579 51.9463 44.2579 52.5239C44.2579 52.5239 44.2579 52.8127 44.2579 53.0293C44.1102 54.0401 43.4457 55.0509 42.4858 55.6284C41.8952 55.9894 41.2306 56.1338 40.6399 56.1338C40.6399 56.1338 40.2708 56.1338 40.1231 56.1338C39.0894 55.9894 38.0557 55.3396 37.465 54.4011C37.465 54.4011 37.2435 53.8957 37.0958 53.5347C37.0958 53.5347 37.022 53.1737 36.8743 53.0293C36.6528 52.6683 36.2098 52.3795 35.8406 52.3073C35.8406 52.3073 35.6929 52.3073 35.6191 52.3073C35.6191 52.3073 35.2499 52.3073 35.1022 52.3795C34.733 52.5961 34.8069 52.5239 34.6592 52.6683L29.5645 58.733C29.5645 58.733 29.4168 58.8052 29.2691 59.2384C29.2691 59.2384 29.2691 59.3827 29.343 59.5271C29.343 59.5271 29.5645 59.7437 29.6383 59.7437C31.8534 60.3213 34.29 62.1985 35.9882 65.0142V65.1586L36.1359 65.4474V65.7362C36.1359 65.7362 35.8406 66.4582 35.3976 66.8192C35.3976 66.8192 34.733 67.0358 34.4377 67.2524C33.1825 67.9743 32.4441 69.2017 32.2226 70.5013C32.2226 70.5013 32.2226 70.9345 32.2226 71.1511C32.2226 71.9452 32.4441 72.7394 32.8871 73.4614C33.6255 74.6888 34.8807 75.4108 36.1359 75.6274C36.1359 75.6274 36.5789 75.6274 36.8004 75.6274C37.6126 75.6274 38.4248 75.4108 39.0894 75.0498C40.3446 74.3278 41.083 73.1004 41.3045 71.8009C41.3045 71.8009 41.3045 71.3677 41.4521 70.8623C41.4521 70.8623 42.1905 70.5735 42.412 70.5735C42.412 70.5735 42.6335 70.5735 42.7812 70.5735H42.9289C45.2916 71.0789 47.9497 72.956 49.7218 75.9162C49.7218 75.9162 49.9433 76.2049 50.0171 76.4215L50.1648 76.5659H50.4602C50.4602 76.5659 50.8293 76.5659 50.977 76.4215C50.977 76.4215 51.1247 76.2049 51.1985 76.1327L54.7427 71.9452C54.7427 71.9452 55.4072 71.2233 55.6287 70.2847V69.9959C55.6287 69.9959 55.5549 69.4183 55.4072 69.1295C55.038 68.6241 54.5212 68.2631 53.9305 68.1909C53.9305 68.1909 53.7828 68.1909 53.709 68.1909H53.5613C52.6014 68.0465 51.9369 67.3246 51.2724 66.2416C50.9032 65.664 50.7555 65.0142 50.7555 64.3644C50.7555 64.3644 50.7555 64.0034 50.7555 63.859C50.9032 62.7761 51.5677 61.7653 52.5276 61.1877C53.1921 60.7545 54.0781 60.5379 54.8903 60.5379C54.8903 60.5379 55.3334 60.5379 55.481 60.5379C56.4409 60.6823 57.3269 61.1877 57.8438 61.9819C57.8438 61.9819 58.3606 62.9205 58.5083 63.2815C58.8775 63.9312 59.3205 64.4366 60.0589 64.5088C60.0589 64.5088 60.2065 64.5088 60.2804 64.5088C60.2804 64.5088 60.8711 64.4366 61.0926 64.22L65.6704 58.8052C65.6704 58.8052 65.9658 58.4442 66.0396 58.1554V58.011C66.0396 58.011 65.9658 57.5778 65.7443 57.4334H65.6704C63.8984 57.0724 61.3141 55.123 59.1728 52.0907C59.1728 52.0907 58.9513 51.8019 58.9513 51.5853V51.4409C58.9513 51.4409 59.1728 51.0077 59.6897 50.719C59.6897 50.719 60.4281 50.5024 60.7234 50.2858C61.9786 49.5638 62.717 48.3364 62.9385 47.109C62.9385 47.109 62.9385 46.6759 62.9385 46.4593C62.9385 45.6651 62.717 44.8709 62.3478 44.2211L62.5693 44.0767L62.7908 43.9323C63.2338 44.7265 63.4553 45.5929 63.4553 46.4593C63.4553 46.4593 63.4553 46.9646 63.4553 47.1812C63.2338 48.6252 62.3478 49.9248 61.0187 50.7912C60.6496 51.0077 60.2065 51.1521 59.9112 51.2243C59.9112 51.2243 59.4682 51.5853 59.3943 51.6575C59.3943 51.6575 59.3943 51.7297 59.542 51.8741C61.6833 54.8343 64.2675 56.7836 65.7443 57.0002H65.9658C66.4088 57.289 66.5565 57.7222 66.5565 58.0832C66.5565 58.0832 66.5565 58.1554 66.5565 58.2276C66.4826 58.733 66.1873 59.0218 66.1134 59.1662L61.5356 64.581C61.5356 64.581 60.7972 65.0142 60.4281 65.0142C60.4281 65.0142 60.2804 65.0142 60.2065 65.0142C59.2467 64.8698 58.656 64.22 58.2868 63.498C58.2868 63.498 57.6961 62.3429 57.6223 62.2707C57.1793 61.5487 56.5147 61.1877 55.6287 61.0433C55.6287 61.0433 55.2595 61.0433 55.1118 61.0433C54.3735 61.0433 53.6351 61.2599 53.0444 61.6209C52.1584 62.1263 51.6415 62.9927 51.4939 63.9312C51.4939 63.9312 51.4939 64.22 51.4939 64.3644C51.4939 64.942 51.6415 65.4474 51.9369 65.9528C52.5276 66.9636 53.1183 67.5412 53.8566 67.6855H54.0043C54.0043 67.6855 54.2258 67.6855 54.2996 67.6855C55.038 67.7577 55.7025 68.2631 56.1456 68.8407C56.1456 68.8407 56.4409 69.6349 56.4409 69.9959C56.4409 69.9959 56.4409 70.2125 56.4409 70.3569C56.2932 71.4399 55.481 72.1618 55.481 72.234L51.863 76.4937C51.863 76.4937 51.7154 76.6381 51.5677 76.7825C51.5677 76.7825 51.1985 77.1435 50.7555 77.1435L50.9032 76.9991Z" fill="#E5F3FF"/>
</g>
<defs>
<clipPath id="clip0_4772_2277">
<rect width="46" height="67" fill="white" transform="translate(21 10)"/>
</clipPath>
</defs>
</svg>
