<svg width="88" height="88" viewBox="0 0 88 88" fill="none" xmlns="http://www.w3.org/2000/svg">
<circle cx="44" cy="44" r="44" fill="#E4FDF9"/>
<g clip-path="url(#clip0_2735_4283)">
<g opacity="0.7">
<path d="M50.4507 31.2228C49.0606 31.1011 44.9507 31.8312 43.7419 32.4397C43.6211 32.4397 43.4397 32.6223 43.2584 32.8048C42.5936 32.2572 41.7474 31.6487 40.9013 31.0402C39.7529 30.2492 38.4837 29.5799 37.2749 29.2148L35.9452 30.5535H36.0661C37.0331 30.5535 38.6046 31.2836 40.0551 32.2572C40.7804 32.7439 41.5057 33.2916 42.1705 33.7783C39.3298 36.6381 33.9507 42.7836 33.1046 43.5138C32.0167 44.4265 31.8958 44.9133 32.6211 45.9476C33.4068 47.0429 34.6156 47.3471 36.8518 46.2519C39.1485 45.1566 40.6595 42.1143 42.4727 41.9318C44.2859 41.8101 45.9782 41.9318 47.3683 42.7228C48.4562 43.3312 53.7749 47.9556 56.0716 49.9635C57.0991 51.1805 57.8848 52.154 58.3079 52.6408C58.6101 52.945 58.6705 53.1884 58.6705 53.4318C58.6705 53.736 58.4892 54.0402 58.2474 54.2836C58.0057 54.527 57.5826 54.7096 57.4013 54.6487C57.0386 54.527 55.7694 53.6143 54.8024 52.7016C54.2584 52.2148 53.7749 51.7889 53.4727 51.4847C53.2309 51.2413 53.0496 51.1196 52.9892 51.0588C52.687 50.7545 52.2035 50.7545 51.9013 51.0588C51.5991 51.363 51.6595 51.8498 51.9013 52.154C51.9013 52.154 52.143 52.3974 52.3848 52.6408C52.7474 53.0058 53.3518 53.5535 53.8958 54.1619C54.3793 54.7096 54.8628 55.318 55.2254 55.8048C55.5881 56.2916 55.7694 56.7783 55.709 56.7783C55.709 56.7783 55.4672 57.4476 55.165 57.7519C54.8628 58.0561 54.4397 58.2387 54.1375 58.2387C54.1375 58.2387 53.5331 57.9344 53.1705 57.6302C51.7804 56.5958 49.6046 54.7096 49.5441 54.7096C49.2419 54.4662 48.8189 54.4662 48.5167 54.7096C48.2145 55.0138 48.2145 55.4397 48.5167 55.7439C48.5167 55.7439 49.4232 56.7783 50.2694 57.8736C50.6925 58.4212 51.176 59.0297 51.4782 59.4556C51.6595 59.699 51.7804 59.8815 51.9013 60.0641C51.9013 60.1249 51.9617 60.1857 52.0221 60.2466C52.0221 60.2466 51.8408 60.9159 51.5386 61.1593C51.2969 61.4027 50.9342 61.5852 50.7529 61.6461C50.3298 61.4635 49.121 60.6725 48.0936 59.9424C47.0661 59.2122 46.22 58.5429 46.22 58.5429C45.9178 58.2995 45.4342 58.3603 45.1925 58.6646C44.9507 58.9688 44.9507 59.3947 45.1925 59.699C45.1925 59.699 46.0386 60.6725 46.9452 61.6461C47.3683 62.1328 47.7914 62.6805 48.154 63.1064C48.2749 63.2889 48.3958 63.4715 48.5167 63.5932C48.0331 64.6884 47.3683 65.1752 46.9452 65.1752C46.8243 65.1752 46.3408 64.8709 45.8573 64.5667C44.7694 63.8365 43.3189 62.6805 42.4123 61.9503L43.0771 61.3418C43.6815 60.7942 43.5606 59.699 42.8958 58.9688C42.1705 58.2387 41.143 58.0561 40.5386 58.6646L39.6925 59.4556L39.4507 59.2122L40.1156 58.5429C40.72 57.9953 40.5991 56.9 39.9342 56.1699C39.209 55.4397 38.1815 55.2572 37.5771 55.8656L36.7914 56.6566L36.5496 56.4133L37.2749 55.7439C37.8793 55.1963 37.7584 54.1011 37.0936 53.3709C36.3683 52.6408 35.3408 52.4582 34.7364 53.0667L33.8903 53.8577L33.709 53.6752L34.4342 53.0059C35.0386 52.4582 34.9782 51.363 34.2529 50.6328C33.5276 49.9027 32.5002 49.7201 31.8958 50.3286L31.0496 51.1196C29.1156 49.1725 27.5441 47.5905 27.1211 47.0429C25.9123 45.5826 25.2474 43.5138 25.2474 41.7492C25.2474 41.6275 25.2474 41.5667 25.2474 41.5058L23.7969 42.9662C24.0386 44.7916 24.7639 46.617 25.9123 48.0773C26.3958 48.6857 27.9672 50.2678 29.9013 52.2148L28.0881 53.9185C27.4837 54.4662 27.6046 55.5614 28.2694 56.2916C28.9947 57.0217 30.0222 57.2043 30.6265 56.5958L32.5606 54.7704L32.7419 54.9529L30.9287 56.6566C30.3243 57.2043 30.4452 58.2995 31.1101 59.0297C31.8353 59.7598 32.8628 59.9424 33.4672 59.3339L35.3408 57.5085L35.5826 57.7519L33.7694 59.5164C33.165 60.0641 33.2859 61.1593 33.9507 61.8894C34.676 62.6196 35.7035 62.8021 36.3079 62.1937L38.2419 60.3683L38.4837 60.6117L36.6705 62.3154C36.0661 62.863 36.187 63.9582 36.8518 64.6884C37.5771 65.4185 38.6046 65.6011 39.209 64.9926L41.2035 63.1064C41.687 63.5323 42.3518 64.0191 43.0771 64.6275C43.7419 65.1752 44.4672 65.6619 45.0716 66.0879C45.3738 66.2704 45.676 66.4529 45.9178 66.5746C46.2199 66.6963 46.4013 66.818 46.7639 66.818C48.2145 66.818 49.2419 65.6011 49.9068 64.0191C49.9068 64.0191 49.9068 63.8365 49.9068 63.7148C49.9068 63.2889 49.7859 63.1672 49.665 62.9847L49.8463 63.1064C49.8463 63.1064 50.209 63.2889 50.5716 63.3498C51.2969 63.3498 51.9013 62.9238 52.4452 62.4371C52.9287 61.9503 53.3518 61.281 53.3518 60.49C53.3518 60.3683 53.3518 60.2466 53.3518 60.1249C53.3518 60.0032 53.2914 59.8815 53.2309 59.7598C53.2914 59.7598 53.4123 59.8207 53.5331 59.8815C53.7145 59.8815 53.8353 59.8815 54.0167 59.8815C54.8024 59.8815 55.4672 59.5164 56.0716 59.0297C56.6156 58.5429 57.0386 57.8736 57.0991 57.0826V56.9609C57.0991 56.9609 57.0991 56.535 56.9782 56.3524H57.22C58.6101 56.3524 59.9397 55.2572 60.0002 53.5535C60.0002 52.945 59.7584 52.2757 59.2749 51.7281C58.9727 51.363 58.4287 50.6937 57.7035 49.8418C58.7309 48.3815 60.4232 45.8868 60.7254 44.4873C61.209 42.4794 60.7254 41.2625 60.7254 41.2625L50.209 31.1619L50.4507 31.2228Z" fill="#007CDE"/>
<path d="M57.9451 21.5488L50.1484 29.0938L63.2638 41.8107L70.6374 34.3875L57.9451 21.5488Z" fill="#007CDE"/>
<path d="M28.8736 21.2441L16 33.8394L23.3132 41.8103L36.1264 28.7891L28.8736 21.2441Z" fill="#007CDE"/>
</g>
<g style="mix-blend-mode:color-dodge">
<path d="M46.2198 66.6951C46.2198 66.6951 45.6759 66.3909 45.3737 66.1475C44.7693 65.7216 44.044 65.2348 43.3792 64.6872C42.6539 64.1396 41.9891 63.5919 41.7473 63.166L39.8133 65.0523C39.8133 65.0523 39.1484 65.4782 38.7858 65.4782C38.2418 65.4782 37.6374 65.2348 37.2143 64.748C36.7913 64.2613 36.5495 63.7136 36.5495 63.2269C36.5495 62.8618 36.6704 62.5576 36.8517 62.2533C36.8517 62.2533 36.1869 62.6184 35.8242 62.6184C35.2803 62.6184 34.6759 62.375 34.2528 61.8882C33.8297 61.4015 33.588 60.8538 33.588 60.3671C33.588 60.0628 33.7089 59.6978 33.8297 59.4544C33.8297 59.4544 33.2253 59.7586 32.9231 59.7586C32.3792 59.7586 31.7748 59.5152 31.3517 59.0284C30.9286 58.6025 30.6869 57.9941 30.6869 57.5073C30.6869 57.5073 30.6869 57.0205 30.8682 56.7771C30.8682 56.7771 30.3847 56.9597 30.0825 56.9597C29.5385 56.9597 28.9341 56.7163 28.5111 56.2295C28.088 55.7427 27.8462 55.1951 27.8462 54.7083C27.8462 54.2824 28.0275 53.8565 28.3297 53.5523L30.1429 52.0919C28.2089 50.1449 26.6374 48.5628 26.1539 47.9544C24.9451 46.4941 24.2198 44.6078 24.0385 42.5999L25.4286 41.6263C25.4286 41.6263 25.61 41.3829 25.4286 41.5655H25.61L25.8517 41.3221L25.7308 41.4438L25.61 41.5655H25.7913C25.7913 43.33 26.4561 45.338 27.6045 46.7374C28.0275 47.2242 29.599 48.8671 31.2308 50.8142L32.077 50.0232C32.077 50.0232 32.7418 49.5972 33.1045 49.5972C33.6484 49.5972 34.2528 49.8406 34.6759 50.3274C35.099 50.7533 35.2803 51.3009 35.3407 51.8486C35.3407 51.8486 35.3407 52.3353 35.1594 52.5787C35.1594 52.5787 35.7034 52.3962 35.9451 52.3962C36.4891 52.3962 37.0935 52.6396 37.5165 53.1263C37.9396 53.5523 38.1209 54.0999 38.1814 54.6475C38.1814 54.9517 38.1209 55.256 37.9396 55.4993C37.9396 55.4993 38.4836 55.256 38.8462 55.256C39.3902 55.256 39.9946 55.4993 40.4176 55.9861C40.8407 56.412 41.022 56.9597 41.022 57.5073C41.022 57.8724 40.9616 58.1766 40.7803 58.42C40.7803 58.42 41.4451 58.0549 41.8078 58.0549C42.3517 58.0549 42.9561 58.2983 43.4396 58.7851C43.8627 59.211 44.044 59.7586 44.044 60.3062C44.044 60.7322 43.9231 61.1581 43.5605 61.4623L42.8957 61.7665C43.8023 62.4967 45.2528 63.6528 46.2803 64.3829C46.7638 64.748 47.2473 64.9914 47.2473 64.9914C47.2473 64.9914 48.1539 64.5655 48.6374 63.7136C48.6374 63.7136 48.4561 63.4094 48.3352 63.2269C48.033 62.8009 47.61 62.3142 47.1869 61.7665C46.522 61.0364 45.8572 60.3062 45.6154 60.002C45.6154 60.002 45.6154 59.8803 45.4946 59.8195C45.4946 59.8195 45.2528 59.3935 45.2528 59.1501C45.2528 59.1501 45.3133 58.6634 45.4946 58.4808C45.4946 58.4808 45.9781 58.1158 46.2198 58.1158C46.2198 58.1158 46.6429 58.1766 46.8242 58.2983C46.8242 58.2983 47.6704 58.9676 48.6979 59.6369C49.6649 60.3062 50.8133 61.0972 51.2363 61.2798C51.2363 61.2798 51.6594 61.0972 51.8407 60.8538C51.8407 60.8538 52.2638 60.2454 52.2638 60.1237L52.1429 59.9412C52.1429 59.9412 51.9012 59.5761 51.7198 59.3327C51.3572 58.8459 50.9341 58.2983 50.5111 57.7507C49.6045 56.6554 48.7583 55.621 48.7583 55.621C48.7583 55.621 48.5166 55.1951 48.5166 55.0126C48.5166 55.0126 48.6374 54.5258 48.8187 54.3433C48.8187 54.3433 49.2418 54.039 49.4836 54.039C49.4836 54.039 49.9067 54.0999 50.088 54.2824C50.088 54.2824 52.2638 56.1687 53.6539 57.2031C53.6539 57.2031 54.3187 57.6898 54.3792 57.9332L54.5605 57.8115C54.5605 57.8115 55.1045 57.6898 55.4067 57.3856C55.4067 57.3856 55.8902 56.7771 55.8902 56.5946C55.8902 56.5946 55.7693 56.1687 55.4067 55.7427C55.044 55.256 54.5605 54.6475 54.077 54.0999C53.533 53.4914 52.9286 52.9438 52.566 52.5787C52.566 52.5787 52.1429 52.1528 52.022 52.0919C52.022 52.0919 51.7198 51.666 51.7198 51.4226C51.7198 51.4226 51.7803 50.9359 51.9616 50.7533C51.9616 50.7533 52.3847 50.4491 52.6869 50.4491C52.6869 50.4491 53.1704 50.5099 53.3517 50.6925C53.3517 50.6925 53.5935 50.9359 53.8352 51.1792C54.1979 51.4835 54.6814 51.9094 55.1649 52.3962C55.9506 53.1263 57.0385 53.9173 57.5825 54.2824C57.5825 54.2824 57.7638 54.4041 57.8242 54.465L57.6429 54.2824C57.6429 54.2824 58.1264 54.1607 58.3682 53.9173C58.3682 53.9173 58.7308 53.4306 58.7308 53.1872C58.7308 53.1872 58.7308 52.8221 58.4286 52.5179C58.0056 52.0311 57.2198 51.0575 56.1924 49.8406C53.9561 47.8935 48.5165 43.2083 47.4891 42.6607C46.4616 42.1131 45.2528 41.8697 43.9231 41.8697C43.5605 41.8697 43.1374 41.8697 42.7143 41.8697C41.0825 41.9306 39.5111 45.0337 37.1539 46.129C36.1869 46.6158 35.3407 46.7983 34.6759 46.7983C33.7693 46.7983 33.1045 46.3724 32.6814 45.7639C32.3792 45.2771 32.1979 44.912 32.1374 44.547C32.1374 43.9993 32.5001 43.5734 33.1649 43.0258C33.9506 42.3565 39.3297 36.1501 42.1704 33.5946C41.566 33.1078 40.8407 32.5602 40.1154 32.0734C38.7253 31.0999 37.0935 30.3697 36.2473 30.3697L36.0056 30.0655L37.5165 28.666C38.7858 29.0311 39.9946 29.7004 41.2034 30.4914C42.0495 31.039 42.8957 31.7083 43.3187 32.256C43.3187 32.256 43.7418 31.8909 43.8627 31.83C45.0111 31.2216 48.5165 30.5523 50.2089 30.5523C50.2089 30.5523 50.5111 30.5523 50.6319 30.5523V30.7348L50.7528 30.6131L61.2693 40.7745C61.2693 40.7745 61.4506 41.3221 61.4506 42.3565C61.4506 42.8433 61.4506 43.4517 61.2693 44.121C60.9067 45.5814 59.2748 48.0761 58.2473 49.293C58.9122 50.1449 59.4561 50.8142 59.8187 51.1792C60.3023 51.7269 60.6045 52.457 60.6045 53.0655C60.544 54.83 59.0935 55.9861 57.6429 56.047C57.6429 56.047 57.6429 56.2904 57.6429 56.4729V56.5946C57.5825 57.4464 57.099 58.1766 56.555 58.6634C55.9506 59.1501 55.2253 59.5761 54.3792 59.5761C54.3792 59.5761 54.077 59.5761 53.9561 59.5761C53.9561 59.5761 53.9561 59.8803 53.9561 60.002C53.9561 60.8538 53.533 61.584 52.9891 62.0708C52.4451 62.5575 51.7803 62.9835 50.9946 63.0443H50.9341C50.9341 63.0443 50.5715 63.0443 50.4506 62.9226C50.4506 62.9226 50.4506 63.1052 50.4506 63.2269L50.3902 63.5919C49.7253 65.2348 48.6374 66.4517 47.066 66.5126C46.6429 66.5126 46.4012 66.3909 46.099 66.2083L46.2198 66.6951ZM43.5605 64.3829C44.2253 64.9306 44.9506 65.4173 45.555 65.8433C45.555 65.8433 46.1594 66.2083 46.4012 66.33C46.4012 66.33 46.8242 66.5734 47.1869 66.5734C48.5165 66.5734 49.4836 65.4782 50.088 63.8962C50.088 63.8962 50.088 63.7136 50.088 63.6528C50.088 63.2877 49.9671 63.2269 50.088 62.7401H50.2693C50.2693 62.7401 50.5715 63.0443 50.9341 63.0443C51.599 63.0443 52.2034 62.6184 52.6869 62.1925C53.1704 61.7057 53.533 61.0972 53.533 60.3671C53.533 60.3671 53.533 60.1237 53.533 60.0628C53.533 60.0628 53.4726 59.8195 53.6539 59.4544C53.6539 59.4544 53.7748 59.5152 53.8957 59.5152C53.8957 59.5152 54.1979 59.5152 54.3187 59.5152C55.044 59.5152 55.7089 59.1501 56.1924 58.7242C56.7363 58.2374 57.099 57.629 57.1594 56.8988V56.7771C57.1594 56.7771 57.1594 56.412 57.2803 55.9253H57.4616C58.7308 55.9253 60.0001 54.8909 60.0605 53.3697C60.0605 52.8221 59.8187 52.2136 59.3957 51.7269C59.0935 51.3618 58.5495 50.6925 57.8242 49.5972C58.8517 48.1369 60.544 45.6422 60.7858 44.3036C60.9067 43.6343 60.9671 43.0867 60.9671 42.5999C60.9671 41.748 60.7858 41.2613 60.8462 41.2613L50.3902 31.2216C50.3902 31.2216 50.2089 31.2216 50.0275 31.2216C48.4561 31.2216 44.8902 31.8909 43.8627 32.4385C43.8627 32.4385 43.6209 32.621 43.1374 32.8036C42.4726 32.256 41.6869 31.6475 40.8407 31.039C39.6924 30.248 38.4836 29.5787 37.4561 29.2136L35.9451 30.248H36.066C37.0935 30.248 38.7253 30.9782 40.1759 32.0126C40.9012 32.4993 41.6264 33.047 42.2913 33.8988C39.4506 36.7586 34.1319 42.9041 33.2253 43.6343C32.6209 44.1819 32.3187 44.4861 32.3792 44.7904C32.3792 44.7904 32.5001 45.338 32.8023 45.7639C33.2253 46.3115 33.7089 46.6766 34.4946 46.6766C35.099 46.6766 35.8242 46.4941 36.7913 46.0681C39.0275 45.0337 40.4781 41.9914 42.4726 41.748C42.8957 41.748 43.3187 41.6872 43.6814 41.6872C45.0715 41.6872 46.3407 41.9306 47.4286 42.539C48.577 43.1475 53.8957 47.7718 56.1924 49.8406C57.2198 51.0575 58.0056 52.0311 58.4286 52.5179C58.7308 52.8829 58.7913 53.1872 58.61 53.6131C58.61 53.6131 58.7913 53.6131 58.7913 53.4306C58.7913 53.7956 58.61 54.1607 58.3078 54.465C58.3078 54.465 57.6429 54.8909 57.3407 54.8909L57.099 54.7083L57.2198 54.8909C56.7363 54.7692 55.5275 53.7956 54.5605 52.9438C54.0165 52.457 53.533 52.0311 53.2308 51.7269C53.2308 51.7269 52.8078 51.3618 52.7473 51.2401C52.7473 51.2401 52.5056 51.0576 52.3847 51.0576C52.3847 51.0576 52.0825 51.0575 51.9616 51.2401C51.9616 51.2401 51.7803 51.4835 51.7803 51.6052C51.7803 51.6052 51.8407 51.9094 51.9616 52.0311C51.9616 52.0311 52.2034 52.2745 52.4451 52.5179C52.8078 52.8829 53.4122 53.4306 53.9561 54.039C54.4396 54.5867 54.9836 55.1951 55.3462 55.6819C55.6484 56.1078 55.7693 56.412 55.7693 56.7163H55.8297C55.8297 56.7163 55.8902 56.7163 55.8297 56.838C55.8297 57.1422 55.588 57.5681 55.2253 57.9332C54.8627 58.2374 54.5001 58.42 54.1374 58.42C54.1374 58.42 53.4726 58.0549 52.9891 57.7507C51.599 56.7163 49.3627 54.83 49.3627 54.83C49.3627 54.83 49.1209 54.7083 49.0001 54.7083C49.0001 54.7083 48.6979 54.7083 48.577 54.8909C48.577 54.8909 48.3957 55.1343 48.3957 55.256C48.3957 55.256 48.3957 55.4994 48.5166 55.621C48.5166 55.621 49.4231 56.6554 50.2693 57.7507C50.7528 58.2983 51.1759 58.9068 51.5385 59.3935C51.5385 59.3935 51.8407 59.8195 51.9616 60.002L52.0825 60.2454V60.3671C52.0825 60.6713 51.8407 61.0364 51.5385 61.4015C51.5385 61.4015 50.9341 61.8882 50.5111 61.9491C50.0275 61.7665 48.8187 60.9755 47.8517 60.2454C46.8242 59.5152 45.9781 58.9068 45.9176 58.8459C45.9176 58.8459 45.6759 58.7242 45.555 58.7242C45.555 58.7242 45.2528 58.7851 45.1319 58.9068C45.1319 58.9068 45.0111 59.1501 45.0111 59.2718C45.0111 59.2718 45.0111 59.5152 45.0111 59.5761C45.3133 59.6978 45.9176 60.5496 46.8847 61.6449C47.3078 62.1316 47.7308 62.6792 48.033 63.1052C48.033 63.1052 48.3352 63.4703 48.3957 63.7745C47.8517 64.9306 47.1869 65.4173 46.5825 65.4782C46.5825 65.4782 45.9781 65.174 45.4341 64.8089C44.3462 64.0787 42.8957 62.9226 41.9891 61.8882L42.6539 61.2798C42.6539 61.2798 43.0165 60.793 43.0165 60.4279C43.0165 60.002 42.8352 59.5761 42.4726 59.1501C42.11 58.7242 41.6264 58.5417 41.1429 58.5417C41.1429 58.5417 40.599 58.6025 40.3572 58.8459L39.2693 59.6369C39.2693 59.6369 39.088 59.4544 38.9671 59.0893L39.6924 58.42C39.6924 58.42 40.055 57.9332 40.055 57.5681C40.055 57.1422 39.8737 56.6554 39.5111 56.2904C39.1484 55.8644 38.6649 55.6819 38.1814 55.6819C37.8792 55.6819 37.6374 55.7427 37.3957 55.9861L36.3078 56.7771L36.066 56.2295L36.7913 55.5602C36.7913 55.5602 37.1539 55.0734 37.1539 54.7083C37.1539 54.2824 36.9726 53.7956 36.61 53.4306C36.2473 53.0046 35.7638 52.8221 35.3407 52.8221C35.0385 52.8221 34.7968 52.9438 34.555 53.1263L33.4671 53.9173L33.2858 53.4306L34.0111 52.7613C34.0111 52.7613 34.3737 52.2745 34.3737 51.9094C34.3737 51.4835 34.1924 50.9967 33.8297 50.6316C33.4671 50.2057 32.9231 50.0232 32.5001 50.0232C32.5001 50.0232 31.9561 50.084 31.7143 50.3274L30.6264 51.1184C28.6924 49.1713 27.1209 47.5893 26.6979 47.0417C25.4891 45.6422 24.8242 43.6343 24.7638 41.8089L23.7363 42.7824C23.9781 44.547 24.6429 46.3724 25.8517 47.7718C26.3352 48.3803 27.9067 49.9623 29.8407 52.2136L28.0275 53.9173C28.0275 53.9173 27.6649 54.4041 27.6649 54.7692C27.6649 55.1951 27.8462 55.621 28.2089 56.047C28.5715 56.4729 29.055 56.6554 29.4781 56.6554C29.4781 56.6554 30.022 56.5337 30.2638 56.3512L32.4396 54.5258L32.6209 55.0126L30.8078 56.7163C30.8078 56.7163 30.4451 57.2031 30.4451 57.5681C30.4451 57.9941 30.6264 58.42 30.9891 58.8459C31.3517 59.2718 31.8352 59.4544 32.2583 59.4544C32.2583 59.4544 32.8023 59.3327 33.044 59.1501L35.2198 57.3247L35.4616 57.8724L33.6484 59.6369C33.6484 59.6369 33.2858 60.1237 33.2858 60.4888C33.2858 60.9147 33.4671 61.3406 33.8297 61.7665C34.1924 62.1925 34.6759 62.375 35.099 62.375C35.099 62.375 35.6429 62.2533 35.8847 62.0708L38.1209 60.2454L38.4231 60.793L36.61 62.4967C36.61 62.4967 36.2473 62.9835 36.2473 63.3486C36.2473 63.7745 36.4286 64.2004 36.7913 64.6263C37.1539 65.0523 37.6374 65.2348 38.1209 65.2348C38.1209 65.2348 38.6649 65.1131 38.9067 64.9306L41.1429 63.0443C41.6264 63.4094 42.2913 63.957 43.0165 64.5046L43.5605 64.3829ZM37.1539 61.8882L38.7253 60.6713V60.4279L37.1539 61.9491V61.8882ZM39.8737 59.0284C39.8737 59.0284 39.9946 59.1501 39.9946 59.211L40.4781 58.7242L39.8737 59.0284ZM34.4341 58.9068L35.8242 57.7507V57.5073L34.4341 58.9068ZM37.033 56.2295V56.4729L37.577 55.9253L37.033 56.2295ZM32.2583 55.4993L32.9836 54.9517V54.7692L32.2583 55.4993ZM34.1319 53.4306V53.6131L34.3737 53.3089L34.1319 53.4306Z" fill="#E5F3FF"/>
<path d="M50.2695 28.7888L58.0058 21.3047L58.1267 21.4264L58.2476 21.3047L70.9399 34.3867L63.264 41.81L50.2695 28.7888ZM50.5717 28.7888L63.3849 41.5057L70.7585 34.3867L58.1267 21.7306L50.5113 28.7888H50.5717Z" fill="#E5F3FF"/>
<path d="M16.0605 33.5952L28.9342 21L29.0551 21.1217L29.1759 21L36.4287 28.7884L23.4342 41.8095L16.0605 33.5952ZM16.3627 33.5952L23.4342 41.5053L36.2474 28.7884L29.1155 21.4259L16.3627 33.5952Z" fill="#E5F3FF"/>
</g>
</g>
<defs>
<clipPath id="clip0_2735_4283">
<rect width="55" height="46" fill="white" transform="translate(16 21)"/>
</clipPath>
</defs>
</svg>
