<svg width="50" height="50" viewBox="0 0 50 50" fill="none" xmlns="http://www.w3.org/2000/svg">
<path d="M29.7706 29.5626L22.9164 36.4168L20.2289 33.7293C20.0352 33.534 19.8048 33.379 19.5509 33.2732C19.2971 33.1675 19.0248 33.113 18.7497 33.113C18.4747 33.113 18.2024 33.1675 17.9485 33.2732C17.6947 33.379 17.4642 33.534 17.2706 33.7293C16.8825 34.1196 16.6648 34.6476 16.6648 35.198C16.6648 35.7484 16.8825 36.2764 17.2706 36.6668L21.4372 40.8334C21.6309 41.0287 21.8613 41.1837 22.1152 41.2894C22.3691 41.3952 22.6414 41.4497 22.9164 41.4497C23.1914 41.4497 23.4637 41.3952 23.7176 41.2894C23.9715 41.1837 24.2019 41.0287 24.3956 40.8334L32.7289 32.5001C33.1169 32.1098 33.3347 31.5817 33.3347 31.0313C33.3347 30.481 33.1169 29.9529 32.7289 29.5626C32.5352 29.3673 32.3048 29.2123 32.0509 29.1066C31.7971 29.0008 31.5248 28.9463 31.2497 28.9463C30.9747 28.9463 30.7024 29.0008 30.4485 29.1066C30.1947 29.2123 29.9642 29.3673 29.7706 29.5626ZM38.3747 17.3334C37.1004 14.408 34.9017 11.9813 32.1159 10.4254C29.33 8.8695 26.1107 8.27024 22.9516 8.71951C19.7924 9.16879 16.8679 10.6418 14.6262 12.9127C12.3846 15.1836 10.9497 18.1271 10.5414 21.2918C8.80389 21.7229 7.25139 22.702 6.11378 24.0843C4.97617 25.4666 4.31393 27.1784 4.22511 28.9664C4.13629 30.7544 4.62563 32.5235 5.62065 34.0117C6.61568 35.4999 8.0635 36.6281 9.74974 37.2293C10.0158 37.3689 10.309 37.4493 10.6091 37.465C10.9092 37.4806 11.2092 37.4312 11.4884 37.32C11.7676 37.2089 12.0194 37.0386 12.2267 36.821C12.4339 36.6033 12.5915 36.3434 12.6889 36.0591C12.7862 35.7747 12.8208 35.4727 12.7904 35.1738C12.76 34.8748 12.6653 34.5859 12.5128 34.327C12.3602 34.0681 12.1535 33.8452 11.9067 33.6737C11.6599 33.5022 11.3789 33.3861 11.0831 33.3334C10.2711 33.0399 9.57028 32.5013 9.07764 31.7922C8.585 31.0831 8.32482 30.2385 8.33307 29.3751C8.33307 28.27 8.77206 27.2102 9.55346 26.4288C10.3349 25.6474 11.3947 25.2084 12.4997 25.2084C13.0523 25.2084 13.5822 24.9889 13.9729 24.5982C14.3636 24.2075 14.5831 23.6776 14.5831 23.1251C14.5933 20.6629 15.4753 18.2838 17.0728 16.4101C18.6703 14.5364 20.8798 13.2891 23.3094 12.8896C25.7391 12.4901 28.2317 12.9641 30.345 14.2276C32.4583 15.4912 34.0558 17.4624 34.8539 19.7918C34.9761 20.1459 35.1916 20.4605 35.4775 20.7025C35.7635 20.9444 36.1094 21.1048 36.4789 21.1668C37.8665 21.429 39.1245 22.1534 40.0477 23.222C40.971 24.2906 41.5051 25.6404 41.5631 27.0514C41.6211 28.4624 41.1995 29.8515 40.367 30.9922C39.5346 32.133 38.3403 32.9582 36.9789 33.3334C36.4264 33.4025 35.9239 33.6882 35.582 34.1278C35.2402 34.5673 35.0869 35.1246 35.156 35.6772C35.2251 36.2297 35.5108 36.7322 35.9503 37.074C36.3899 37.4159 36.9472 37.5692 37.4997 37.5001H38.0206C40.213 36.9207 42.1566 35.6417 43.556 33.8573C44.9554 32.0729 45.7343 29.8805 45.7744 27.6131C45.8145 25.3458 45.1135 23.1273 43.778 21.2945C42.4425 19.4618 40.5454 18.1149 38.3747 17.4584V17.3334Z" fill="url(#paint0_linear_4772_3499)"/>
<defs>
<linearGradient id="paint0_linear_4772_3499" x1="45.776" y1="8.57422" x2="4.21484" y2="8.57422" gradientUnits="userSpaceOnUse">
<stop stop-color="#01E9BD"/>
<stop offset="1" stop-color="#007CDE"/>
</linearGradient>
</defs>
</svg>
