<svg width="50" height="50" viewBox="0 0 50 50" fill="none" xmlns="http://www.w3.org/2000/svg">
<path d="M39.5827 13.5423H33.3327V11.459C33.3327 9.80138 32.6742 8.21167 31.5021 7.03957C30.33 5.86746 28.7403 5.20898 27.0827 5.20898H22.916C21.2584 5.20898 19.6687 5.86746 18.4966 7.03957C17.3245 8.21167 16.666 9.80138 16.666 11.459V13.5423H10.416C8.75841 13.5423 7.1687 14.2008 5.9966 15.3729C4.8245 16.545 4.16602 18.1347 4.16602 19.7923V38.5423C4.16602 40.1999 4.8245 41.7896 5.9966 42.9617C7.1687 44.1338 8.75841 44.7923 10.416 44.7923H39.5827C41.2403 44.7923 42.83 44.1338 44.0021 42.9617C45.1742 41.7896 45.8327 40.1999 45.8327 38.5423V19.7923C45.8327 18.1347 45.1742 16.545 44.0021 15.3729C42.83 14.2008 41.2403 13.5423 39.5827 13.5423ZM20.8327 11.459C20.8327 10.9065 21.0522 10.3765 21.4429 9.98585C21.8336 9.59515 22.3635 9.37565 22.916 9.37565H27.0827C27.6352 9.37565 28.1651 9.59515 28.5558 9.98585C28.9465 10.3765 29.166 10.9065 29.166 11.459V13.5423H20.8327V11.459ZM41.666 38.5423C41.666 39.0949 41.4465 39.6248 41.0558 40.0155C40.6651 40.4062 40.1352 40.6257 39.5827 40.6257H10.416C9.86348 40.6257 9.33358 40.4062 8.94288 40.0155C8.55218 39.6248 8.33268 39.0949 8.33268 38.5423V27.084C13.6374 29.1884 19.2925 30.27 24.9993 30.2715C30.7061 30.268 36.3607 29.1865 41.666 27.084V38.5423ZM41.666 22.5215C36.4127 24.8294 30.7373 26.021 24.9993 26.021C19.2614 26.021 13.586 24.8294 8.33268 22.5215V19.7923C8.33268 19.2398 8.55218 18.7099 8.94288 18.3192C9.33358 17.9285 9.86348 17.709 10.416 17.709H39.5827C40.1352 17.709 40.6651 17.9285 41.0558 18.3192C41.4465 18.7099 41.666 19.2398 41.666 19.7923V22.5215Z" fill="url(#paint0_linear_4772_3948)"/>
<defs>
<linearGradient id="paint0_linear_4772_3948" x1="45.8327" y1="5.20898" x2="4.16602" y2="5.20898" gradientUnits="userSpaceOnUse">
<stop stop-color="#01E9BD"/>
<stop offset="1" stop-color="#007CDE"/>
</linearGradient>
</defs>
</svg>
