<svg width="88" height="88" viewBox="0 0 88 88" fill="none" xmlns="http://www.w3.org/2000/svg">
<circle cx="44" cy="44" r="44" fill="#E4FDF9"/>
<g opacity="0.7">
<path d="M52.2495 49.3372C52.2495 48.9439 51.9249 48.5505 51.4705 48.485L47.5106 47.9605C47.4456 47.5016 47.3158 46.9771 47.2509 46.5182L50.6915 44.5515C51.081 44.3548 51.2757 43.8304 51.081 43.5026L50.0423 41.0114C49.9125 40.618 49.458 40.4213 49.0036 40.5524L45.1086 41.6669C44.849 41.2736 44.5893 40.9458 44.3296 40.5524L46.8614 37.4712C47.121 37.1434 47.121 36.619 46.8614 36.3567L44.9788 34.39C44.9788 34.39 44.2647 34.0622 43.8752 34.3244L40.4347 36.8812C40.4347 36.8812 39.8504 36.4878 39.5258 36.2912L40.8242 32.3577C40.954 31.8988 40.8242 31.4399 40.4347 31.3087L37.9678 30.1287C37.6432 29.932 37.1239 30.1287 36.9292 30.4565L34.5273 34.2589H34.2676L33.7483 29.8009C33.7483 29.342 33.3588 29.0142 32.9693 29.0142H30.3077C29.9182 28.9487 29.5287 29.2764 29.4638 29.7354L28.8795 34.1933C28.8795 34.1933 28.3602 34.2589 28.1005 34.3244V34.1933L25.6986 30.3254C25.4389 29.932 24.9845 29.8009 24.6599 29.932L22.1931 31.0465C21.8036 31.1776 21.6089 31.6365 21.7387 32.0954L22.9721 36.2912C22.9721 36.2912 22.4528 36.619 22.1931 36.7501H22.1282L18.5578 33.9311C18.2332 33.6688 17.7139 33.6688 17.4542 33.9311L15.5716 35.8323C15.5716 35.8323 15.2471 36.619 15.5716 36.9467L18.2981 40.4213C18.2981 40.4213 17.9086 41.0114 17.7139 41.2736L13.4294 39.9624C12.975 39.8313 12.5206 39.9624 12.3907 40.4213L11.2872 42.9125C11.0924 43.2403 11.2872 43.7648 11.6117 43.9615L15.4418 46.3216C15.3769 46.7149 15.2471 47.0427 15.1821 47.4361L10.7029 47.895C10.2485 47.895 9.9239 48.2883 9.9239 48.6817V51.4351C9.79407 51.8284 10.1836 52.2218 10.5731 52.2874L14.9874 52.9429C14.9874 52.9429 15.1172 53.5985 15.1172 53.8607L11.2222 56.1553C10.8327 56.352 10.638 56.8764 10.8327 57.2042L11.8714 59.6954C12.0012 60.0888 12.4556 60.2854 12.8451 60.1543L17.1296 58.9743C17.1296 58.9743 17.5191 59.5643 17.7139 59.8921L14.9874 63.3011C14.7277 63.6289 14.7277 64.1534 14.9874 64.4156L16.87 66.3824C16.87 66.3824 17.584 66.7101 17.9735 66.4479L21.479 63.8256C21.479 63.8256 21.9984 64.2189 22.323 64.4156L21.0895 68.4802C20.9597 68.9391 21.1545 69.398 21.544 69.5291L24.0108 70.6436C24.3354 70.8403 24.8547 70.6436 25.0494 70.3158L27.2566 66.6446C27.6461 66.7101 28.0356 66.8413 28.3602 66.9068L28.8146 71.1681C28.8146 71.627 29.2041 71.9548 29.5936 71.9548H32.3201C32.7096 72.0204 33.0991 71.6926 33.164 71.2337L33.7483 66.9724C33.7483 66.9724 34.1378 66.9724 34.3325 66.8413L36.3449 70.447C36.5397 70.8403 37.059 71.037 37.3836 70.8403L39.8504 69.7914C40.2399 69.6603 40.4347 69.2014 40.3048 68.808L39.2662 64.9401C39.5907 64.7434 39.9802 64.5467 40.3048 64.2845L43.4857 66.7757C43.8103 67.0379 44.3296 67.0379 44.5893 66.7757L46.4719 64.8745C46.4719 64.8745 46.7965 64.0878 46.4719 63.76L44.07 60.6788C44.3296 60.2854 44.5893 59.9577 44.849 59.5643L48.6141 60.7444C49.0685 60.8755 49.523 60.6788 49.6528 60.2854L50.7564 57.7942C50.9511 57.4664 50.7564 56.942 50.4318 56.7453L46.9912 54.6474C47.121 54.2541 47.186 53.7952 47.2509 53.4018L51.2108 52.9429C51.6652 52.9429 51.9898 52.5496 51.9898 52.1562V49.4028L52.2495 49.3372ZM32.4499 62.9733V57.9909C34.0079 57.7287 35.3063 57.0731 36.4098 56.0897L40.7592 58.712C38.7468 61.1377 35.7607 62.7111 32.5148 63.0389L32.4499 62.9733ZM21.7387 58.3843L26.153 55.8931C27.1917 56.942 28.5549 57.6631 30.048 57.9254V62.9078C26.6724 62.5144 23.7511 60.8099 21.8036 58.3187L21.7387 58.3843ZM30.2428 38.1268V43.1092C28.5549 43.3714 27.0619 44.1581 25.9583 45.3382L21.6738 42.7814C23.7511 40.1591 26.8022 38.389 30.2428 38.1268ZM41.1487 42.9781L36.7993 45.4693C35.7607 44.2893 34.2676 43.5026 32.7096 43.1748V38.1924C36.2151 38.5857 39.2012 40.4213 41.2136 43.0437L41.1487 42.9781ZM38.1626 47.5672L42.4471 45.1415C43.2261 46.846 43.6805 48.6817 43.6805 50.714C43.6805 52.8774 43.0962 54.8441 42.1225 56.6142L37.9029 54.0574C38.4222 53.0085 38.7468 51.894 38.7468 50.6484C38.7468 49.5339 38.5521 48.5505 38.1626 47.5672ZM34.5273 50.5828C34.5273 52.3529 33.0342 53.7952 31.2814 53.7952C29.4638 53.7952 28.1005 52.2874 28.1005 50.5173C28.1005 48.7472 29.5936 47.3049 31.3463 47.3049C33.0991 47.3049 34.5273 48.8128 34.5273 50.5828ZM24.595 53.7952L20.3105 56.2208C19.4017 54.4508 18.9473 52.484 18.9473 50.3206C18.9473 48.3539 19.4666 46.5182 20.3105 44.8137L24.5301 47.3705C24.1406 48.2883 23.8809 49.2717 23.8809 50.3862C23.8809 51.6318 24.1406 52.7463 24.6599 53.7952H24.595Z" fill="#007CDE"/>
<path d="M75.8135 36.358L73.4115 35.0468C73.6063 34.1946 73.6712 33.2767 73.6712 32.3589C73.6712 31.31 73.4765 30.2611 73.2168 29.2777L75.5538 27.8354C75.5538 27.8354 75.9433 27.311 75.8135 27.1143L75.0345 25.3442C75.0345 25.3442 74.645 24.9509 74.3204 25.0164L71.5939 25.8687C70.6201 24.492 69.3867 23.3119 67.8936 22.4596L68.7376 19.5751C68.7376 19.5751 68.7376 18.9195 68.413 18.854L66.6602 18.1328C66.6602 18.1328 66.076 18.1328 65.9461 18.395L64.3232 21.1485C63.4793 21.0174 62.6354 20.8863 61.7266 20.9518C60.8827 20.9518 60.1037 21.0829 59.3247 21.2796L57.5719 18.5917C57.5719 18.5917 57.0526 18.1984 56.7929 18.395L55.1051 19.2473C55.1051 19.2473 54.7156 19.7062 54.8454 19.9684L55.8192 22.7874C54.3261 23.7053 53.0278 25.0164 52.1189 26.5243L49.1977 25.7376C49.1977 25.7376 48.5485 25.8031 48.4836 26.0653L47.7695 27.8354C47.7695 27.8354 47.7695 28.4254 48.0292 28.5566L50.6259 29.9988C50.4311 30.9167 50.3013 31.9656 50.3013 32.949C50.3013 33.8012 50.4311 34.6535 50.6259 35.5057L48.0941 37.0791C48.0941 37.0791 47.7046 37.6036 47.8344 37.8003L48.6134 39.5703C48.6134 39.5703 49.0029 39.9637 49.3275 39.8981L52.054 39.0459C53.0278 40.6193 54.391 41.9304 56.0139 42.9138L55.3648 45.5361C55.3648 45.5361 55.4297 46.1917 55.6893 46.2573L57.4421 46.9784C57.4421 46.9784 58.0263 46.9784 58.1562 46.7162L59.4545 44.2905C60.3633 44.4872 61.2722 44.5527 62.181 44.5527C63.0249 44.5527 63.8688 44.4216 64.7127 44.225L66.076 46.5195C66.076 46.5195 66.5953 46.9128 66.7901 46.7817L68.5428 45.995C68.5428 45.995 68.9323 45.6017 68.8674 45.2739L68.0884 42.7827C69.7113 41.7337 71.0096 40.357 71.9834 38.7181L74.58 39.3737C74.58 39.3737 75.1643 39.3081 75.2941 39.0459L76.0082 37.2758C76.0082 37.2758 76.0082 36.6858 75.7485 36.5546L75.8135 36.358ZM62.181 40.947C57.6368 41.0782 53.8717 37.4069 53.7418 32.8178C53.612 28.2288 57.2473 24.4264 61.7915 24.2953C66.3356 24.1642 70.1008 27.8354 70.2306 32.4245C70.3605 37.0136 66.7251 40.8159 62.181 40.947ZM61.8564 25.9998C58.2211 26.0653 55.3648 29.1466 55.4297 32.8178C55.4946 36.4891 58.5457 39.3737 62.181 39.3081C65.8163 39.2425 68.6726 36.1613 68.6077 32.49C68.5428 28.8188 65.4917 25.9342 61.8564 25.9998ZM62.0512 35.1124C60.6879 35.1124 59.5843 34.0634 59.5843 32.7523C59.5843 31.3756 60.623 30.2611 61.9213 30.2611C63.2846 30.2611 64.3882 31.31 64.3882 32.6212C64.3882 33.9979 63.3495 35.1124 62.0512 35.1124Z" fill="#007CDE"/>
</g>
<g opacity="0.8">
<path d="M32.4512 72.1495H29.7247C29.2703 72.1495 28.8808 71.6906 28.8159 71.2317L28.4913 67.1015C28.1018 67.036 27.7123 66.9704 27.5176 66.7737L25.3104 70.445C25.3104 70.445 24.7911 70.9694 24.4665 70.9694C24.4665 70.9694 24.2068 70.9694 24.077 70.9039L21.6102 69.7894C21.2207 69.6583 21.0259 69.2649 21.0259 68.8716C21.0259 68.8716 21.0259 68.6749 21.0259 68.5438L22.2594 64.6103C22.2594 64.6103 21.6751 64.217 21.6102 64.0203L18.1047 66.6426C18.1047 66.6426 17.7152 66.8393 17.5204 66.8393C17.5204 66.8393 17.0011 66.7737 16.8713 66.577L15.0536 64.6103C15.0536 64.6103 14.794 64.217 14.794 63.9547H14.729C14.729 63.9547 14.794 63.4958 14.9887 63.2991L17.7152 60.0868C17.7152 60.0868 17.3257 59.4968 17.3257 59.2345L13.0412 60.4146C13.0412 60.4146 12.8465 60.4146 12.7815 60.4146H12.7166C12.3271 60.4146 11.9376 60.2179 11.8078 59.8246L10.7691 57.3334C10.7691 57.3334 10.6393 57.0711 10.6393 56.94H10.7042C10.7042 56.6122 10.899 56.2844 11.2235 56.0877L15.0536 53.8588C15.0536 53.8588 14.9887 53.3343 15.0536 53.1376L10.6393 52.482C10.12 52.4165 9.79539 52.0231 9.79539 51.5642H9.73047V48.7452C9.73047 48.2863 10.1849 47.893 10.7042 47.8274L15.1185 47.3685C15.1185 47.0407 15.2484 46.7129 15.4431 46.5818L11.613 44.2217C11.613 44.2217 11.0937 43.6973 11.0937 43.3695H10.9639C10.9639 43.3695 10.9639 43.1072 11.0288 42.9761H11.0937L12.1973 40.4849C12.3271 40.0916 12.6517 39.8949 13.1061 39.8949H13.0412C13.0412 39.8949 13.236 39.8949 13.3658 39.8949L17.5854 41.206C17.5854 41.206 17.9749 40.6816 18.1696 40.616L15.4431 37.1414C15.4431 37.1414 15.1835 36.6825 15.1835 36.4859H15.2484C15.2484 36.4859 15.3133 35.9614 15.508 35.8303L17.3906 33.9291C17.3906 33.9291 17.7801 33.6013 18.0398 33.6013C18.0398 33.6013 18.4942 33.6669 18.6889 33.8635L22.2594 36.617C22.2594 36.617 22.7138 36.3547 22.9085 36.3547L21.6751 32.159C21.6751 32.159 21.6751 31.9623 21.6751 31.8312C21.6751 31.4379 21.8699 31.0445 22.2594 30.9134L24.7262 29.7989C24.7262 29.7989 24.9858 29.6678 25.1157 29.6678C25.4403 29.6678 25.7648 29.8645 25.9596 30.1923L28.2966 34.0602H28.2317C28.2317 34.0602 28.751 34.0602 28.8808 34.0602L29.4651 29.6023C29.53 29.0778 29.9195 28.75 30.3739 28.75H30.4388L33.0355 28.8811L33.1653 28.8156C33.6197 28.8156 34.0092 29.2089 34.0742 29.7334L34.4636 34.0602V34.1913H34.5935L36.9954 30.3234C36.9954 30.3234 37.5147 29.7989 37.8393 29.7989C37.8393 29.7989 38.099 29.7989 38.2288 29.93L40.6307 31.1101C40.9553 31.2412 41.215 31.6346 41.215 32.0279C41.215 32.0279 41.215 32.2246 41.215 32.3557L39.8517 36.0925C39.8517 36.0925 40.436 36.4859 40.6307 36.6825L44.0713 34.1258C44.0713 34.1258 44.4608 33.9291 44.7205 33.9291C44.7205 33.9291 45.2398 34.0602 45.3696 34.2569L47.1873 36.2236C47.1873 36.2236 47.4469 36.617 47.4469 36.8792C47.4469 36.8792 47.382 37.3381 47.2522 37.5348L44.7205 40.4193C44.9801 40.7471 45.2398 41.1405 45.3047 41.4683L49.1997 40.3538C49.1997 40.3538 49.3944 40.3538 49.4594 40.3538C49.8489 40.3538 50.2384 40.5505 50.3682 40.9438L51.4069 43.435C51.4069 43.435 51.4718 43.6317 51.4718 43.8284C51.4718 44.1562 51.277 44.5495 50.9524 44.7462L47.5768 46.5818C47.7066 47.0407 47.7715 47.5652 47.7066 47.893L51.6665 48.4174C52.1209 48.4174 52.5104 48.8764 52.5104 49.3353V52.1543C52.5104 52.6132 52.1209 53.0065 51.6016 53.0721L47.7715 53.3999C47.7066 53.8588 47.5768 54.2521 47.4469 54.5144L50.8875 56.6122C50.8875 56.6122 51.4069 57.1367 51.4069 57.4645C51.4069 57.4645 51.4069 57.7267 51.3419 57.8578L50.2384 60.349C50.1085 60.7424 49.719 60.939 49.3295 60.939C49.3295 60.939 49.1348 60.939 49.0049 60.939L45.3696 59.6934C45.11 60.0868 44.8503 60.4146 44.5906 60.6113L46.9925 63.6925C46.9925 63.6925 47.1873 64.0858 47.1873 64.3481C47.1873 64.3481 47.1224 64.8725 46.9276 65.0037L44.9801 66.9048C44.9801 66.9048 44.5906 67.1671 44.331 67.1671C44.331 67.1671 43.8765 67.1015 43.6818 66.9704L40.6956 64.4792C40.371 64.6759 40.0465 64.9381 39.7219 64.9381L40.7606 68.806C40.7606 68.806 40.7606 69.0027 40.7606 69.0683C40.7606 69.4616 40.5009 69.855 40.1763 69.9861L37.6446 71.035C37.6446 71.035 37.3849 71.1006 37.2551 71.1006C36.9305 71.1006 36.6059 70.9039 36.4111 70.5761L34.5286 67.036C34.5286 67.036 34.1391 67.1015 34.0092 67.036L33.425 71.2972C33.3601 71.7561 32.9706 72.1495 32.5162 72.1495H32.4512ZM32.4512 71.8873C32.4512 71.8873 33.0355 71.625 33.1004 71.2972L33.8145 66.9048C33.8145 66.9048 34.204 66.9048 34.5935 66.9048L36.6059 70.5761C36.6059 70.5761 36.9954 70.9694 37.1901 70.9694C37.1901 70.9694 37.32 70.9694 37.4498 70.9694L39.9816 69.9205C39.9816 69.9205 40.371 69.5927 40.371 69.3305C40.371 69.3305 40.371 69.1994 40.371 69.1338L39.3973 65.1348C39.7219 64.9381 40.1114 64.7414 40.5658 64.4792L43.7467 66.9704C43.7467 66.9704 44.0713 67.1015 44.2011 67.1015C44.2011 67.1015 44.5257 67.036 44.6555 66.9048L46.603 65.0037C46.603 65.0037 46.7978 64.7414 46.7978 64.5447C46.7978 64.5447 46.7978 64.217 46.6679 64.0858L44.266 60.8079C44.5257 60.4146 44.7854 60.0868 45.1749 59.6279L48.94 60.8079C48.94 60.8079 49.0699 60.8079 49.1348 60.8079C49.1348 60.8079 49.6541 60.6768 49.7839 60.4146L50.8875 57.9234C50.8875 57.9234 50.9524 57.7923 50.9524 57.6611C50.9524 57.6611 50.8226 57.2022 50.5629 57.0711L47.0574 54.8421C47.1873 54.4488 47.2522 53.9899 47.4469 53.4654L51.4069 53.0065C51.7964 53.0065 52.056 52.6787 52.056 52.3509V49.5975C52.056 49.2697 51.7964 48.9419 51.4069 48.9419L47.382 48.2863C47.3171 47.8274 47.1873 47.3685 47.1873 46.7129L50.6279 44.7462C50.6279 44.7462 51.0174 44.3528 51.0174 44.0906C51.0174 44.0906 51.0174 43.9595 51.0174 43.8284L49.9787 41.2716C49.9787 41.2716 49.6541 40.8783 49.3295 40.8783C49.3295 40.8783 49.1997 40.8783 49.1348 40.8783L45.045 41.9272C44.7854 41.5338 44.5257 41.206 44.331 40.6816L46.8627 37.6003C46.8627 37.6003 47.0574 37.2726 47.0574 37.0759C47.0574 37.0759 46.9925 36.7481 46.8627 36.617L45.045 34.6502C45.045 34.6502 44.7854 34.388 44.5906 34.388C44.5906 34.388 44.266 34.388 44.1362 34.5191L40.5009 37.0759C40.5009 37.0759 39.9166 36.6825 39.5271 36.3547L40.8255 32.4868C40.8255 32.4868 40.8255 32.2901 40.8255 32.2246C40.8255 32.2246 40.6956 31.7001 40.436 31.6346L37.9691 30.4545C37.9691 30.4545 37.7744 30.389 37.7095 30.389C37.7095 30.389 37.2551 30.5201 37.1252 30.7167L34.7233 34.5191L34.5286 34.6502L34.1391 34.4536L33.6197 29.9956C33.6197 29.6023 33.2952 29.34 32.9706 29.34H30.1792C30.1792 29.34 29.5949 29.5367 29.53 29.93L28.8159 34.5191C28.8159 34.5191 28.2966 34.5847 27.8422 34.5191V34.388L25.4403 30.5201C25.4403 30.5201 25.0508 30.1267 24.856 30.1267C24.856 30.1267 24.6613 30.1267 24.5963 30.1923L22.1295 31.3068C22.1295 31.3068 21.74 31.6346 21.74 31.9623C21.74 31.9623 21.74 32.0935 21.74 32.2246L22.9085 36.617C22.9085 36.617 22.3892 36.9448 21.9348 37.0759H21.8699L18.3644 34.2569C18.3644 34.2569 18.0398 34.1258 17.9099 34.1258C17.9099 34.1258 17.5854 34.1913 17.4555 34.3224L15.573 36.2236C15.573 36.2236 15.3782 36.4859 15.3782 36.6825H15.508C15.508 36.6825 15.508 37.0103 15.6379 37.1414H15.7028L18.4293 40.8127C18.4293 40.8127 18.0398 41.4027 17.6503 41.7305L13.3658 40.4193C13.3658 40.4193 13.236 40.4193 13.171 40.4193H13.0412C13.0412 40.4193 12.5219 40.5505 12.457 40.8127L11.3534 43.3039C11.3534 43.3039 11.2885 43.5006 11.2885 43.5661C11.2885 43.5661 11.4183 44.0251 11.678 44.1562H11.613L15.4431 46.5163L15.573 46.7129C15.508 47.0407 15.3782 47.4341 15.1835 47.893L10.7042 48.3519C10.3147 48.3519 10.0551 48.6797 10.0551 48.9419H10.12V51.7609H10.0551C10.0551 51.7609 10.3147 52.3509 10.7042 52.4165H10.6393L15.0536 53.0721L15.2484 53.2032C15.2484 53.2032 15.3133 53.8588 15.3133 54.3177L11.4183 56.6122C11.4183 56.6122 11.0288 57.0056 11.0288 57.2022H10.9639C10.9639 57.2022 10.9639 57.3334 11.0288 57.4645L12.0675 60.0212C12.0675 60.0212 12.392 60.4146 12.6517 60.4146H12.7166C12.7166 60.4146 12.8465 60.4146 12.9114 60.4146L17.3257 59.3001C17.3257 59.3001 17.7152 59.8901 17.9099 60.349L15.1835 63.758C15.1835 63.758 14.9887 64.0858 14.9887 64.217C14.9887 64.217 15.0536 64.5447 15.1835 64.6759L17.066 66.6426C17.066 66.6426 17.3257 66.8393 17.5204 66.8393C17.5204 66.8393 17.845 66.8393 17.9749 66.7082L21.6102 64.0858C21.6102 64.0858 22.1295 64.4792 22.519 64.807L21.3505 68.8716C21.3505 68.8716 21.3505 69.0027 21.3505 69.0683C21.3505 69.0683 21.4804 69.5927 21.74 69.6583L24.2068 70.7728C24.2068 70.7728 24.4016 70.7728 24.4665 70.7728C24.4665 70.7728 24.9209 70.6417 25.0508 70.3794L27.3878 66.6426C27.7773 66.7082 28.1018 66.8393 28.6212 67.036L29.0756 71.2972C29.0756 71.6906 29.4002 71.9528 29.6598 71.9528H32.3863L32.4512 71.8873ZM32.4512 63.1025H32.3214L32.5162 57.9234C33.9443 57.7267 35.3076 57.0711 36.4761 56.0877L40.8255 58.9067C38.7481 61.3324 35.8269 62.9714 32.4512 63.2336V63.1025ZM32.646 58.12V62.9714C35.762 62.6436 38.6183 61.0702 40.6307 58.9723L36.4761 56.35C35.4374 57.3334 34.0742 58.0545 32.646 58.12ZM21.6102 58.6445H21.74V58.4478L26.2193 55.9566C27.2579 56.94 28.5563 57.6611 30.1142 58.12L29.8546 63.2991C26.4789 62.9058 23.5577 61.2013 21.5453 58.6445H21.6102ZM29.7897 63.1025L29.9844 58.2512C28.4913 57.9889 27.1281 57.2022 26.2193 56.2189L21.9997 58.6445C23.9472 61.0046 26.8035 62.6436 29.8546 63.168L29.7897 63.1025ZM37.8393 54.121C38.3586 53.1376 38.6832 51.9576 38.6832 50.7775C38.6832 49.663 38.4236 48.6797 38.099 47.7619H38.2288V47.5652L42.6431 45.2051C43.4221 46.844 43.8765 48.6797 43.8765 50.6464V50.8431C43.8765 53.0065 43.2923 55.0388 42.1238 56.8744L37.8393 54.121ZM39.0078 50.712C39.0078 52.0887 38.6832 53.2687 38.099 54.121L42.1238 56.7433C43.0975 55.0388 43.6169 53.0721 43.6818 50.9742V50.7775C43.6818 48.8764 43.2274 47.0407 42.708 45.5329L38.4885 47.893C38.878 48.7452 39.0727 49.7942 39.0727 50.7775L39.0078 50.712ZM18.8837 50.712V50.5809C18.8837 48.5486 19.403 46.7129 20.4417 45.0084L24.7262 47.7619C24.3367 48.6797 24.077 49.663 24.077 50.712C24.077 51.9576 24.3367 53.0065 24.7911 53.9899H24.6613V54.1866L20.2469 56.5467C19.3381 54.8421 18.8837 52.8098 18.8837 50.7775V50.712ZM19.2083 50.5809V50.712C19.2083 52.7443 19.6627 54.6455 20.3768 56.2844L24.5314 53.9243C24.077 52.941 23.8173 51.8265 23.8173 50.712C23.8173 49.5319 24.077 48.483 24.5314 47.7619L20.5066 45.1395C19.7276 46.7785 19.2083 48.6141 19.2083 50.5809ZM28.0369 50.712C28.0369 48.8764 29.53 47.3685 31.4126 47.3685C31.4126 47.3685 31.5424 47.3685 31.4775 47.3685C33.2952 47.3685 34.7882 48.8764 34.7882 50.7775C34.7882 52.6787 33.2302 54.1866 31.4126 54.1866C29.5949 54.1866 28.1018 52.6787 28.1018 50.7775L28.0369 50.712ZM28.2966 50.712C28.2966 52.4165 29.6598 53.7932 31.2178 53.8588H31.3477C33.0355 53.8588 34.3987 52.482 34.3987 50.7775C34.3987 49.0075 33.0355 47.6307 31.2827 47.6307C29.6598 47.6307 28.2966 48.9419 28.1667 50.7775L28.2966 50.712ZM32.5811 43.3039L32.8407 38.1904C36.2813 38.5837 39.3324 40.4193 41.3448 43.1072H41.215V43.3039L36.7357 45.7296C35.6971 44.5495 34.2689 43.7628 32.5811 43.3039ZM32.7109 43.1728C34.3338 43.5006 35.8269 44.2873 36.7357 45.4673L40.9553 43.1072C39.0078 40.5505 36.0866 38.846 32.9057 38.3215L32.7109 43.1728ZM21.5453 42.845C23.6226 40.2227 26.7386 38.4526 30.2441 38.1248V38.2559H30.3739L30.1792 43.435C28.5562 43.6973 27.1281 44.484 25.8298 45.664L21.4804 42.845H21.5453ZM21.74 42.845L25.8947 45.4673C26.9983 44.2873 28.4913 43.435 30.0493 43.3039V38.4526C26.7386 38.7804 23.8173 40.4849 21.74 42.845Z" fill="#E5F3FF"/>
<path d="M57.443 46.9767L55.6903 46.2556C55.6903 46.2556 55.2359 45.8622 55.2359 45.6C55.2359 45.6 55.2359 45.4689 55.2359 45.4033L55.9499 42.9121C54.327 41.9287 52.9638 40.6176 52.1199 39.1097L49.3934 39.962C49.3934 39.962 49.2635 39.962 49.1986 39.962C49.1986 39.962 48.6793 39.8309 48.5495 39.5686L47.7705 37.8641C47.7705 37.8641 47.7055 37.6674 47.7055 37.5363C47.7055 37.5363 47.8354 37.0774 48.095 36.8807L50.5619 35.504C50.3671 34.6518 50.2373 33.7995 50.2373 32.9473V32.7506C50.2373 31.7672 50.3022 30.8494 50.6268 30.1283L48.0301 28.686C48.0301 28.686 47.6406 28.2926 47.6406 28.0304C47.6406 28.0304 47.6406 27.8337 47.7055 27.7682L48.4196 25.9981C48.4196 25.9981 48.8091 25.5392 49.0688 25.5392C49.0688 25.5392 49.1986 25.5392 49.2635 25.5392L52.0549 26.3914C53.0287 24.818 54.2621 23.5724 55.7552 22.7202L54.7814 19.9012C54.7814 19.9012 54.7814 19.7045 54.7814 19.639C54.7814 19.639 54.9113 19.1145 55.1709 18.9834L56.8588 18.1311C56.8588 18.1311 57.0535 18.0656 57.1833 18.0656C57.1833 18.0656 57.6378 18.1967 57.8325 18.4589L59.5203 21.0812C60.2993 20.8846 61.0134 20.819 61.7924 20.819C61.7924 20.819 61.9872 20.819 62.117 20.819C62.896 20.819 63.675 20.8846 64.2592 21.1468L65.8822 18.3933C65.8822 18.3933 66.2717 18 66.5313 18C66.5313 18 66.7261 18 66.791 18.0656L68.5437 18.7867C68.5437 18.7867 68.9981 19.18 68.9981 19.4423C68.9981 19.4423 68.9981 19.5734 68.9981 19.7045L68.0893 22.458C69.5824 23.3102 70.8158 24.4903 71.6597 25.867L74.3213 25.0147C74.3213 25.0147 74.516 25.0147 74.581 25.0147C74.581 25.0147 75.1652 25.1458 75.2301 25.4736L76.0091 27.1781C76.0091 27.1781 76.074 27.3748 76.074 27.4404C76.074 27.4404 75.9442 27.9648 75.6845 28.096L73.4125 29.4071C73.6721 30.3905 73.8669 31.4394 73.8669 32.5539C73.8669 32.5539 73.8669 32.685 73.8669 32.7506C73.8669 33.6028 73.802 34.3895 73.5423 35.0451L75.9442 36.4218V36.553L75.8144 36.6841L73.3476 35.1762C73.4774 34.3895 73.6072 33.6028 73.6072 32.7506C73.6072 32.7506 73.6072 32.6195 73.6072 32.4883C73.6072 31.4394 73.4125 30.456 73.2177 29.276L75.5547 27.8337C75.5547 27.8337 75.7495 27.5715 75.7495 27.4404V27.3093L74.9705 25.5392C74.9705 25.5392 74.7757 25.277 74.581 25.277H74.4511L71.5948 26.1292C70.6211 24.7525 69.3876 23.5724 67.8946 22.5891L68.7385 19.7045V19.5734C68.7385 19.5734 68.6087 19.2456 68.4788 19.18L66.7261 18.3933H66.5962C66.5962 18.3933 66.2717 18.4589 66.2067 18.6556L64.5838 21.3435L64.3891 21.4746C63.675 21.3435 62.896 21.2123 62.117 21.2123C62.117 21.2123 61.9223 21.2123 61.7924 21.2123C61.0134 21.2123 60.1695 21.3435 59.2607 21.409L57.5728 18.7211C57.5728 18.7211 57.3132 18.4589 57.1833 18.4589C57.1833 18.4589 57.0535 18.4589 56.9886 18.4589L55.3008 19.3112C55.3008 19.3112 55.106 19.5078 55.106 19.7045V19.8356L56.0149 22.8513C54.5218 23.7691 53.2884 25.0803 52.1848 26.6537L49.2635 25.867H49.1337C49.1337 25.867 48.7442 25.9325 48.7442 26.1292L48.0301 27.8993V28.0304C48.0301 28.0304 48.095 28.2926 48.2898 28.4237L50.9514 30.0627C50.7566 30.915 50.6268 31.8328 50.6268 32.7506C50.6268 32.7506 50.6268 32.8817 50.6268 32.9473C50.6268 33.7995 50.7566 34.6518 50.8864 35.5696L48.3547 37.143C48.3547 37.143 48.095 37.4052 48.095 37.5363C48.095 37.5363 48.095 37.6674 48.095 37.733L48.874 39.5031C48.874 39.5031 49.0688 39.6997 49.2635 39.6997H49.3934L52.2497 38.913C53.2234 40.4864 54.5867 41.7976 56.2096 42.8465L55.5604 45.4689V45.6C55.5604 45.6 55.6254 45.9933 55.8201 45.9933L57.5728 46.7145C57.5728 46.7145 57.6378 46.7145 57.7027 46.7145C57.7027 46.7145 58.0273 46.6489 58.0922 46.4522L59.5853 43.961C60.3643 44.1577 61.2082 44.2233 62.117 44.2233C62.117 44.2233 62.2468 44.2233 62.3118 44.2233C63.1557 44.2233 63.9996 44.0921 64.9733 43.961L66.3366 46.2556C66.3366 46.2556 66.5962 46.4522 66.7261 46.4522H66.8559L68.6086 45.6655C68.6086 45.6655 68.8683 45.4689 68.8683 45.2722V45.1411L68.1542 42.4532C69.7122 41.4043 71.0755 40.0275 72.1791 38.323L74.7757 38.9786H74.9055C74.9055 38.9786 75.295 38.8475 75.295 38.7164L76.0091 36.9463V36.8152C76.0091 36.8152 75.9442 36.4874 75.7495 36.4218V36.2907L75.8793 36.1596C75.8793 36.1596 76.2688 36.553 76.2688 36.8152C76.2688 36.8152 76.2688 37.0119 76.2688 37.0774L75.5547 38.8475C75.5547 38.8475 75.1652 39.3064 74.9055 39.3064C74.9055 39.3064 74.7757 39.3064 74.7108 39.3064L72.3089 38.5853C71.3351 40.2898 69.9719 41.6665 68.4139 42.5843L69.1929 45.0755C69.1929 45.0755 69.1929 45.2066 69.1929 45.2722C69.1929 45.2722 69.0631 45.8622 68.8034 45.9278L67.0507 46.7145C67.0507 46.7145 66.8559 46.78 66.791 46.78C66.791 46.78 66.2717 46.6489 66.1418 46.3867L64.9084 44.1577C64.0645 44.3544 63.2206 44.4855 62.3118 44.4855C62.3118 44.4855 62.2468 44.4855 62.1819 44.4855C61.2731 44.4855 60.4292 44.4855 59.78 44.1577L58.4817 46.5833C58.4817 46.5833 58.0922 46.9767 57.8325 46.9767C57.8325 46.9767 57.6378 46.9767 57.5728 46.9767H57.443ZM61.9872 41.0765C57.443 41.0765 53.7428 37.4052 53.6129 32.8161C53.6129 32.8161 53.6129 32.685 53.6129 32.6195C53.6129 28.0304 57.2483 24.2936 61.7924 24.1625C61.7924 24.1625 61.9223 24.1625 61.9872 24.1625C66.5313 24.1625 70.2316 27.8337 70.3614 32.4228V32.6195C70.3614 37.2085 66.7261 40.9453 62.1819 41.0765H61.9872ZM53.8726 32.6195V32.8161C54.0024 37.2741 57.5728 40.8142 61.9872 40.8142H62.1819C66.5962 40.6831 70.1017 37.0774 70.1017 32.6195V32.4228C69.9719 27.9648 66.4015 24.4247 61.9872 24.4247H61.7924C57.3781 24.5558 53.8726 28.1615 53.8726 32.6195ZM61.9872 39.4375C58.3518 39.4375 55.3657 36.4874 55.2359 32.8161C55.2359 32.8161 55.2359 32.685 55.2359 32.6195C55.2359 28.9482 58.1571 25.9325 61.7924 25.867C61.7924 25.867 61.9223 25.867 61.9872 25.867C65.6225 25.867 68.6086 28.8171 68.6736 32.5539V32.685C68.6736 36.3563 65.7523 39.372 62.0521 39.4375H61.9223H61.9872ZM62.117 39.1753C65.6225 39.1097 68.4139 36.2252 68.4139 32.685V32.5539C68.349 29.0138 65.4277 26.1948 61.9872 26.1948H61.8573C58.3518 26.2603 55.5604 29.1449 55.5604 32.685V32.8817C55.6254 36.4218 58.4817 39.2408 61.9872 39.2408H62.117V39.1753ZM61.9872 35.2418C60.6239 35.2418 59.4554 34.1273 59.3905 32.7506C59.3905 31.2427 60.4941 30.1283 61.8573 30.0627H61.9223C63.2855 30.0627 64.454 31.1772 64.5189 32.6195C64.5189 34.0617 63.4153 35.2418 61.9872 35.2418ZM59.7151 32.685C59.7151 33.9962 60.7538 34.9796 61.9872 34.9796C63.2206 34.9796 64.1943 33.9306 64.1943 32.685C64.1943 31.3739 63.1557 30.3905 61.9223 30.3905C60.6888 30.3905 59.7151 31.4394 59.7151 32.685Z" fill="#E5F3FF"/>
</g>
</svg>
