<svg width="50" height="50" viewBox="0 0 50 50" fill="none" xmlns="http://www.w3.org/2000/svg">
<path d="M45.834 31.2507H41.6673V25.0007C41.6673 24.4481 41.4478 23.9182 41.0571 23.5275C40.6664 23.1368 40.1365 22.9173 39.584 22.9173H27.084V18.7507H31.2507C31.8032 18.7507 32.3331 18.5312 32.7238 18.1405C33.1145 17.7498 33.334 17.2199 33.334 16.6673V4.16732C33.334 3.61478 33.1145 3.08488 32.7238 2.69418C32.3331 2.30348 31.8032 2.08398 31.2507 2.08398H18.7507C18.1981 2.08398 17.6682 2.30348 17.2775 2.69418C16.8868 3.08488 16.6673 3.61478 16.6673 4.16732V16.6673C16.6673 17.2199 16.8868 17.7498 17.2775 18.1405C17.6682 18.5312 18.1981 18.7507 18.7507 18.7507H22.9173V22.9173H10.4173C9.86478 22.9173 9.33488 23.1368 8.94418 23.5275C8.55348 23.9182 8.33398 24.4481 8.33398 25.0007V31.2507H4.16732C3.61478 31.2507 3.08488 31.4701 2.69418 31.8608C2.30348 32.2515 2.08398 32.7815 2.08398 33.334V45.834C2.08398 46.3865 2.30348 46.9164 2.69418 47.3071C3.08488 47.6978 3.61478 47.9173 4.16732 47.9173H16.6673C17.2199 47.9173 17.7498 47.6978 18.1405 47.3071C18.5312 46.9164 18.7507 46.3865 18.7507 45.834V33.334C18.7507 32.7815 18.5312 32.2515 18.1405 31.8608C17.7498 31.4701 17.2199 31.2507 16.6673 31.2507H12.5007V27.084H37.5007V31.2507H33.334C32.7815 31.2507 32.2515 31.4701 31.8608 31.8608C31.4701 32.2515 31.2507 32.7815 31.2507 33.334V45.834C31.2507 46.3865 31.4701 46.9164 31.8608 47.3071C32.2515 47.6978 32.7815 47.9173 33.334 47.9173H45.834C46.3865 47.9173 46.9164 47.6978 47.3071 47.3071C47.6978 46.9164 47.9173 46.3865 47.9173 45.834V33.334C47.9173 32.7815 47.6978 32.2515 47.3071 31.8608C46.9164 31.4701 46.3865 31.2507 45.834 31.2507ZM14.584 35.4173V43.7507H6.25065V35.4173H14.584ZM20.834 14.584V6.25065H29.1673V14.584H20.834ZM43.7507 43.7507H35.4173V35.4173H43.7507V43.7507Z" fill="url(#paint0_linear_4772_3253)"/>
<defs>
<linearGradient id="paint0_linear_4772_3253" x1="47.9173" y1="2.08398" x2="2.08398" y2="2.08398" gradientUnits="userSpaceOnUse">
<stop stop-color="#01E9BD"/>
<stop offset="1" stop-color="#007CDE"/>
</linearGradient>
</defs>
</svg>
