<svg width="50" height="50" viewBox="0 0 50 50" fill="none" xmlns="http://www.w3.org/2000/svg">
<path d="M16.666 12.5007C17.0781 12.5007 17.4809 12.3785 17.8235 12.1495C18.1661 11.9206 18.4331 11.5953 18.5908 11.2146C18.7484 10.8339 18.7897 10.415 18.7093 10.0109C18.6289 9.60675 18.4305 9.23554 18.1392 8.94418C17.8478 8.65282 17.4766 8.4544 17.0725 8.37402C16.6683 8.29363 16.2494 8.33489 15.8688 8.49257C15.4881 8.65025 15.1627 8.91728 14.9338 9.25988C14.7049 9.60248 14.5827 10.0053 14.5827 10.4173C14.5827 10.9699 14.8022 11.4998 15.1929 11.8905C15.5836 12.2812 16.1135 12.5007 16.666 12.5007ZM43.7493 39.584H30.8743C30.5633 38.7102 30.0616 37.9167 29.4058 37.2609C28.75 36.605 27.9564 36.1034 27.0827 35.7923V31.2507H35.416C37.0736 31.2507 38.6633 30.5922 39.8354 29.4201C41.0075 28.248 41.666 26.6583 41.666 25.0007V20.834C41.6568 19.2922 41.0781 17.8082 40.041 16.6673C41.0781 15.5264 41.6568 14.0424 41.666 12.5007V8.33398C41.666 6.67638 41.0075 5.08667 39.8354 3.91457C38.6633 2.74246 37.0736 2.08398 35.416 2.08398H14.5827C12.9251 2.08398 11.3354 2.74246 10.1633 3.91457C8.99116 5.08667 8.33268 6.67638 8.33268 8.33398V12.5007C8.34187 14.0424 8.92062 15.5264 9.95768 16.6673C8.92062 17.8082 8.34187 19.2922 8.33268 20.834V25.0007C8.33268 26.6583 8.99116 28.248 10.1633 29.4201C11.3354 30.5922 12.9251 31.2507 14.5827 31.2507H22.916V35.7923C22.0423 36.1034 21.2487 36.605 20.5929 37.2609C19.9371 37.9167 19.4354 38.7102 19.1243 39.584H6.24935C5.69681 39.584 5.16691 39.8035 4.77621 40.1942C4.38551 40.5849 4.16602 41.1148 4.16602 41.6673C4.16602 42.2199 4.38551 42.7498 4.77621 43.1405C5.16691 43.5312 5.69681 43.7507 6.24935 43.7507H19.1243C19.5623 44.9572 20.3611 45.9997 21.4122 46.7364C22.4633 47.4731 23.7158 47.8683 24.9993 47.8683C26.2829 47.8683 27.5354 47.4731 28.5865 46.7364C29.6376 45.9997 30.4364 44.9572 30.8743 43.7507H43.7493C44.3019 43.7507 44.8318 43.5312 45.2225 43.1405C45.6132 42.7498 45.8327 42.2199 45.8327 41.6673C45.8327 41.1148 45.6132 40.5849 45.2225 40.1942C44.8318 39.8035 44.3019 39.584 43.7493 39.584ZM12.4993 8.33398C12.4993 7.78145 12.7188 7.25155 13.1095 6.86085C13.5002 6.47014 14.0301 6.25065 14.5827 6.25065H35.416C35.9685 6.25065 36.4985 6.47014 36.8892 6.86085C37.2799 7.25155 37.4993 7.78145 37.4993 8.33398V12.5007C37.4993 13.0532 37.2799 13.5831 36.8892 13.9738C36.4985 14.3645 35.9685 14.584 35.416 14.584H14.5827C14.0301 14.584 13.5002 14.3645 13.1095 13.9738C12.7188 13.5831 12.4993 13.0532 12.4993 12.5007V8.33398ZM14.5827 27.084C14.0301 27.084 13.5002 26.8645 13.1095 26.4738C12.7188 26.0831 12.4993 25.5532 12.4993 25.0007V20.834C12.4993 20.2815 12.7188 19.7515 13.1095 19.3608C13.5002 18.9701 14.0301 18.7507 14.5827 18.7507H35.416C35.9685 18.7507 36.4985 18.9701 36.8892 19.3608C37.2799 19.7515 37.4993 20.2815 37.4993 20.834V25.0007C37.4993 25.5532 37.2799 26.0831 36.8892 26.4738C36.4985 26.8645 35.9685 27.084 35.416 27.084H14.5827ZM24.9993 43.7507C24.5873 43.7507 24.1845 43.6285 23.8419 43.3996C23.4993 43.1706 23.2323 42.8453 23.0746 42.4646C22.9169 42.0839 22.8757 41.665 22.956 41.2609C23.0364 40.8568 23.2348 40.4855 23.5262 40.1942C23.8176 39.9028 24.1888 39.7044 24.5929 39.624C24.997 39.5436 25.4159 39.5849 25.7966 39.7426C26.1773 39.9003 26.5027 40.1673 26.7316 40.5099C26.9605 40.8525 27.0827 41.2553 27.0827 41.6673C27.0827 42.2199 26.8632 42.7498 26.4725 43.1405C26.0818 43.5312 25.5519 43.7507 24.9993 43.7507ZM16.666 20.834C16.254 20.834 15.8512 20.9562 15.5086 21.1851C15.166 21.414 14.8989 21.7394 14.7413 22.1201C14.5836 22.5007 14.5423 22.9196 14.6227 23.3238C14.7031 23.7279 14.9015 24.0991 15.1929 24.3905C15.4842 24.6818 15.8554 24.8802 16.2596 24.9606C16.6637 25.041 17.0826 24.9998 17.4633 24.8421C17.844 24.6844 18.1693 24.4174 18.3982 24.0748C18.6272 23.7322 18.7493 23.3294 18.7493 22.9173C18.7493 22.3648 18.5299 21.8349 18.1392 21.4442C17.7485 21.0535 17.2185 20.834 16.666 20.834Z" fill="#0AC9A5"/>
</svg>
