<svg width="24" height="25" viewBox="0 0 24 25" fill="none" xmlns="http://www.w3.org/2000/svg">
<path d="M12.71 17.79C12.6608 17.7448 12.6072 17.7046 12.55 17.67C12.4989 17.6304 12.4414 17.6 12.38 17.58C12.3205 17.5496 12.2562 17.5293 12.19 17.52C11.9984 17.4795 11.7989 17.5005 11.62 17.58C11.4959 17.6249 11.3832 17.6966 11.2899 17.7899C11.1966 17.8832 11.1249 17.9959 11.08 18.12C11.024 18.2387 10.9966 18.3688 11 18.5C10.9984 18.63 11.0222 18.7591 11.07 18.88C11.128 18.9995 11.202 19.1105 11.29 19.21C11.3834 19.3027 11.4943 19.376 11.6161 19.4258C11.7379 19.4755 11.8684 19.5008 12 19.5C12.1312 19.5034 12.2613 19.476 12.38 19.42C12.5012 19.3694 12.6128 19.2983 12.71 19.21C12.8027 19.1166 12.876 19.0057 12.9258 18.8839C12.9755 18.7621 13.0008 18.6316 13 18.5C12.9984 18.3693 12.9712 18.2402 12.92 18.12C12.8724 17.9972 12.801 17.8851 12.71 17.79ZM8.55 13.67C8.49895 13.6304 8.44143 13.6 8.38 13.58C8.32176 13.5426 8.25747 13.5155 8.19 13.5C8.06172 13.4701 7.92828 13.4701 7.8 13.5L7.62 13.56L7.44 13.65L7.29 13.77C7.10253 13.9667 6.99858 14.2283 7 14.5C6.99924 14.6316 7.02446 14.7621 7.07423 14.8839C7.12399 15.0057 7.19732 15.1166 7.29 15.21C7.3872 15.2983 7.49882 15.3694 7.62 15.42C7.7715 15.4822 7.93597 15.5063 8.09895 15.4901C8.26193 15.4739 8.41843 15.4179 8.55471 15.3271C8.69099 15.2362 8.80287 15.1133 8.88051 14.9691C8.95815 14.8249 8.99918 14.6638 9 14.5C8.99632 14.2352 8.89273 13.9816 8.71 13.79L8.55 13.67ZM8.71 17.79C8.6149 17.699 8.50275 17.6276 8.38 17.58C8.19898 17.4961 7.99698 17.4682 7.8 17.5L7.62 17.56C7.55628 17.5819 7.49575 17.6122 7.44 17.65C7.38761 17.6869 7.33752 17.727 7.29 17.77C7.19896 17.8651 7.12759 17.9772 7.08 18.1C7.02709 18.2197 6.99977 18.3491 6.99977 18.48C6.99977 18.6109 7.02709 18.7403 7.08 18.86C7.13064 18.9812 7.20167 19.0928 7.29 19.19C7.38178 19.2863 7.49185 19.3633 7.61376 19.4165C7.73567 19.4698 7.86698 19.4981 8 19.5C8.13118 19.5034 8.26132 19.476 8.38 19.42C8.50118 19.3694 8.6128 19.2983 8.71 19.21C8.79833 19.1128 8.86936 19.0012 8.92 18.88C8.97291 18.7603 9.00023 18.6309 9.00023 18.5C9.00023 18.3691 8.97291 18.2397 8.92 18.12C8.87241 17.9972 8.80104 17.8851 8.71 17.79ZM11.62 13.58C11.4972 13.6276 11.3851 13.699 11.29 13.79C11.1073 13.9816 11.0037 14.2352 11 14.5C11.0008 14.6638 11.0418 14.8249 11.1195 14.9691C11.1971 15.1133 11.309 15.2362 11.4453 15.3271C11.5816 15.4179 11.7381 15.4739 11.9011 15.4901C12.064 15.5063 12.2285 15.4822 12.38 15.42C12.5012 15.3694 12.6128 15.2983 12.71 15.21C12.8027 15.1166 12.876 15.0057 12.9258 14.8839C12.9755 14.7621 13.0008 14.6316 13 14.5C12.9963 14.2352 12.8927 13.9816 12.71 13.79C12.5694 13.6512 12.3908 13.5572 12.1968 13.5199C12.0028 13.4825 11.8021 13.5034 11.62 13.58ZM16.71 17.79C16.6128 17.7017 16.5012 17.6306 16.38 17.58C16.1979 17.5034 15.9972 17.4825 15.8032 17.5199C15.6092 17.5572 15.4306 17.6512 15.29 17.79C15.199 17.8851 15.1276 17.9972 15.08 18.12C15.0271 18.2397 14.9998 18.3691 14.9998 18.5C14.9998 18.6309 15.0271 18.7603 15.08 18.88C15.1306 19.0012 15.2017 19.1128 15.29 19.21C15.3834 19.3027 15.4943 19.376 15.6161 19.4258C15.7379 19.4755 15.8684 19.5008 16 19.5C16.1312 19.5034 16.2613 19.476 16.38 19.42C16.5012 19.3694 16.6128 19.2983 16.71 19.21C16.8488 19.0694 16.9428 18.8908 16.9801 18.6968C17.0175 18.5028 16.9966 18.3021 16.92 18.12C16.8724 17.9972 16.801 17.8851 16.71 17.79ZM16 5.5H8C7.73478 5.5 7.48043 5.60536 7.29289 5.79289C7.10536 5.98043 7 6.23478 7 6.5V10.5C7 10.7652 7.10536 11.0196 7.29289 11.2071C7.48043 11.3946 7.73478 11.5 8 11.5H16C16.2652 11.5 16.5196 11.3946 16.7071 11.2071C16.8946 11.0196 17 10.7652 17 10.5V6.5C17 6.23478 16.8946 5.98043 16.7071 5.79289C16.5196 5.60536 16.2652 5.5 16 5.5ZM15 9.5H9V7.5H15V9.5ZM18 1.5H6C5.20435 1.5 4.44129 1.81607 3.87868 2.37868C3.31607 2.94129 3 3.70435 3 4.5V20.5C3 21.2956 3.31607 22.0587 3.87868 22.6213C4.44129 23.1839 5.20435 23.5 6 23.5H18C18.7956 23.5 19.5587 23.1839 20.1213 22.6213C20.6839 22.0587 21 21.2956 21 20.5V4.5C21 3.70435 20.6839 2.94129 20.1213 2.37868C19.5587 1.81607 18.7956 1.5 18 1.5ZM19 20.5C19 20.7652 18.8946 21.0196 18.7071 21.2071C18.5196 21.3946 18.2652 21.5 18 21.5H6C5.73478 21.5 5.48043 21.3946 5.29289 21.2071C5.10536 21.0196 5 20.7652 5 20.5V4.5C5 4.23478 5.10536 3.98043 5.29289 3.79289C5.48043 3.60536 5.73478 3.5 6 3.5H18C18.2652 3.5 18.5196 3.60536 18.7071 3.79289C18.8946 3.98043 19 4.23478 19 4.5V20.5ZM16.55 13.67C16.4989 13.6304 16.4414 13.6 16.38 13.58C16.3205 13.5496 16.2562 13.5293 16.19 13.52C16.0617 13.4901 15.9283 13.4901 15.8 13.52L15.62 13.58L15.44 13.67L15.29 13.79C15.1073 13.9816 15.0037 14.2352 15 14.5C15.0008 14.6638 15.0418 14.8249 15.1195 14.9691C15.1971 15.1133 15.309 15.2362 15.4453 15.3271C15.5816 15.4179 15.7381 15.4739 15.9011 15.4901C16.064 15.5063 16.2285 15.4822 16.38 15.42C16.5012 15.3694 16.6128 15.2983 16.71 15.21C16.8027 15.1166 16.876 15.0057 16.9258 14.8839C16.9755 14.7621 17.0008 14.6316 17 14.5C16.9963 14.2352 16.8927 13.9816 16.71 13.79L16.55 13.67Z" fill="#292525"/>
</svg>
