<svg width="14" height="23" viewBox="0 0 14 23" fill="none" xmlns="http://www.w3.org/2000/svg">
<path d="M10.1657 0.594114L0.66295 9.97564C0.452884 10.1789 0.28615 10.4208 0.172366 10.6873C0.0585823 10.9538 1.40241e-07 11.2396 1.36799e-07 11.5283C1.33356e-07 11.817 0.0585823 12.1028 0.172366 12.3693C0.28615 12.6358 0.452884 12.8777 0.66295 13.081L10.1657 22.3531C10.3741 22.5581 10.622 22.7208 10.8951 22.8318C11.1682 22.9428 11.4611 23 11.757 23C12.0529 23 12.3458 22.9428 12.6189 22.8318C12.892 22.7208 13.1399 22.5581 13.3483 22.3531C13.7657 21.9434 14 21.3891 14 20.8114C14 20.2337 13.7657 19.6794 13.3483 19.2697L5.41434 11.5283L13.3483 3.7869C13.7623 3.37957 13.9957 2.82981 13.9982 2.25611C13.9999 1.96831 13.9434 1.68301 13.8319 1.41657C13.7203 1.15013 13.556 0.907793 13.3483 0.703455C13.1474 0.491167 12.9054 0.319821 12.6363 0.199312C12.3672 0.0788023 12.0763 0.0115205 11.7804 0.00135245C11.4844 -0.00881372 11.1894 0.0383359 10.9123 0.140078C10.6351 0.241821 10.3814 0.396137 10.1657 0.594114Z" fill="#292525"/>
</svg>
