<svg width="14" height="23" viewBox="0 0 14 23" fill="none" xmlns="http://www.w3.org/2000/svg">
<path d="M3.83427 22.4059L13.337 13.0244C13.5471 12.8211 13.7138 12.5792 13.8276 12.3127C13.9414 12.0462 14 11.7604 14 11.4717C14 11.183 13.9414 10.8972 13.8276 10.6307C13.7138 10.3642 13.5471 10.1223 13.337 9.91905L3.83427 0.646861C3.62592 0.441893 3.37804 0.279204 3.10492 0.168181C2.83181 0.0571584 2.53887 -1.13864e-06 2.243 -1.16803e-06C1.94713 -1.19742e-06 1.65419 0.0571583 1.38108 0.168181C1.10796 0.279204 0.860083 0.441892 0.651731 0.646861C0.234302 1.05659 7.9364e-07 1.61085 7.36244e-07 2.18858C6.78848e-07 2.76631 0.234302 3.32057 0.651731 3.7303L8.58566 11.4717L0.65173 19.2131C0.237678 19.6204 0.00425138 20.1702 0.00177559 20.7439C7.03898e-05 21.0317 0.0566042 21.317 0.168137 21.5834C0.279671 21.8499 0.44401 22.0922 0.651729 22.2965C0.852584 22.5088 1.09456 22.6802 1.36367 22.8007C1.63279 22.9212 1.92371 22.9885 2.21963 22.9986C2.51555 23.0088 2.8106 22.9617 3.08774 22.8599C3.36488 22.7582 3.61861 22.6039 3.83427 22.4059Z" fill="#292525"/>
</svg>
